<svg width="1400" height="107" viewBox="0 0 1400 107" fill="none" xmlns="http://www.w3.org/2000/svg">
<path d="M1485.59 -6.92017L1485.59 232.6L-98.7285 232.6L-98.7285 35.0397C-98.0733 36.0316 -97.3674 36.9897 -96.6135 37.9099C-92.4641 42.9898 -87.4485 46.2098 -82.2013 48.9098C-76.8572 51.4417 -71.2467 53.3767 -65.4727 54.6797L-63.3274 55.2598L-63.0152 55.2598L-62.6527 55.3798L-61.6455 55.7498L-57.4155 57.0198C-54.5653 57.8098 -51.6849 58.5098 -48.744 59.0898C-42.7787 60.2663 -36.749 61.0944 -30.6859 61.5697L-28.6012 61.7997L-26.3854 62.0497L-21.9842 62.6697L-13.1818 63.8798C28.8261 70.8098 71.0455 75.7597 113.376 80.2897C134.264 82.4897 155.152 84.7331 176.04 87.0198C186.494 88.2898 196.969 89.5497 207.443 90.7297C212.69 91.3997 217.927 92.0997 223.205 92.7297L223.839 92.8397L224.252 92.9697L226.135 93.5597L229.902 94.7698C232.41 95.5698 234.938 96.4397 237.466 97.1697C232.098 95.4397 229.409 94.5697 224.071 92.8097C222.328 91.7197 232.833 94.4798 241.333 96.1198C237.959 95.1697 234.636 94.1197 231.403 92.9697C229.771 92.4297 228.16 91.8597 226.548 91.3297L225.34 90.9197L224.746 90.7097L224.595 90.6598C224.736 90.6598 224.02 90.5498 223.678 90.4897L222.409 90.2997C215.712 89.2297 209.165 88.1898 202.77 87.1298C209.095 87.8098 215.45 88.4397 221.815 89.0597L224.212 89.2897C224.751 89.3165 225.284 89.421 225.793 89.5997L230.345 90.8597C233.367 91.6697 236.388 92.5698 239.51 93.2598C251.959 96.0698 264.266 98.3697 276.885 100.35C288.8 100.68 300.694 101.82 312.599 102.41C330.546 103.31 348.463 103.41 366.42 103.04C385.093 102.34 403.745 101.23 422.297 99.0397C425.127 98.7397 427.866 98.3897 430.555 98.0397C431.2 97.9797 431.875 97.9698 432.569 97.9098C433.969 97.7698 435.359 97.6697 436.759 97.5697L438.582 97.4697L440.335 97.4697C443.034 97.5997 445.703 97.6797 448.392 97.7997C467.527 98.4597 486.844 99.1897 505.99 97.6897C512.37 97.2545 518.719 96.4499 525.005 95.2798C529.628 95.1098 533.868 94.9397 537.725 94.7297C550.264 94.0497 562.793 93.2797 575.322 92.3497C587.851 91.4197 600.5 90.1298 613.019 88.7498L626.878 87.0797L634.874 86.0797C637.523 85.7697 640.273 85.5198 643.244 85.3898C658.049 84.8498 672.894 85.4397 687.709 85.2097C692.553 84.9197 697.468 84.4397 702.443 83.7997C704.931 83.4297 707.479 83.0698 709.947 82.6098L713.734 81.8698L713.975 81.8698L716.382 81.8698C726.333 81.8698 736.344 82.2698 746.264 82.9898C756.577 83.6798 766.981 84.8097 777.184 86.4297C782.414 87.243 787.678 88.1898 792.976 89.2698C798.273 90.3498 803.675 91.5031 809.18 92.7297C814.72 93.8897 820.259 95.0498 825.919 96.1598C831.549 97.0398 837.209 97.9298 842.9 98.7798L851.48 100.03L860.071 100.9C865.812 101.446 871.583 101.996 877.384 102.55C900.7 103.9 923.904 104.3 947.25 103.68C961.984 103.05 976.699 102.38 991.413 101.37C1002.63 100.77 1008.93 100.29 1006.25 100.95C1029.04 98.2497 1051.68 94.5298 1074.27 90.5298C1096.79 86.2498 1119.26 81.7498 1141.61 76.6598C1163.34 71.3198 1185.23 66.1598 1206.56 59.3898C1211.03 57.7998 1201.22 59.5297 1184.12 63.2897C1162.25 68.023 1140.37 72.6631 1118.46 77.2097C1096.92 81.5197 1075.32 85.5197 1053.63 89.0397C1057.19 87.9197 1065.22 86.2797 1075.09 84.3397C1085.84 82.0697 1096.64 79.9998 1107.38 77.6298C1118.9 75.1098 1132.99 73.4498 1143.04 68.6298C1136.99 68.7105 1130.96 69.3398 1125.02 70.5098C1111.11 73.8298 1097.17 77.0797 1083.17 80.0397C1070.08 82.3197 1056.86 84.9797 1043.58 86.0397C1041.49 86.0397 1048.14 84.7797 1055.79 83.0397C1063.44 81.2997 1072.17 79.5098 1074.42 78.6398C1075.43 78.2698 1075.19 78.1297 1073.31 78.2897C1087.27 75.7497 1101.2 73.0164 1115.09 70.0898C1132.02 68.0898 1147.64 64.2098 1163.91 59.2198C1174.16 56.8464 1184.39 54.4065 1194.61 51.8998C1197.34 51.2098 1200.12 50.5698 1202.92 49.8998C1199.81 51.1698 1193.15 53.4097 1199.9 52.0597C1211.6 48.9997 1223.29 46.2098 1235.09 43.5998C1243.24 42.1898 1251.56 40.8698 1259.98 39.5998C1269.33 39.2098 1278.71 38.6798 1288.07 38.0598L1288.02 38.0598C1331.57 34.6898 1375.02 28.0598 1416.82 15.1198C1434.32 11.8898 1459.5 10.7399 1474.23 -0.230118C1476.36 -2.50012 1484.87 -11.8601 1485.62 -14.1201L1485.59 -6.92017Z" fill="white"/>
</svg>
