<?xml version="1.0" encoding="UTF-8"?>
<!-- Generator: visioncortex VTracer 0.6.3 -->
<svg version="1.1" xmlns="http://www.w3.org/2000/svg" width="1280" height="960">
<path d="M0 0 C19.17 -0.35 38.4 2.11 53 16 C53 16.66 53 17.32 53 18 C53.66 18 54.32 18 55 18 C55 18.66 55 19.32 55 20 C55.99 20.33 56.98 20.66 58 21 C58 21.66 58 22.32 58 23 C58.66 23 59.32 23 60 23 C65.41 29.8 69.55 38.72 72 47 C72.46 48.36 72.46 48.36 72.94 49.75 C74.37 54.14 75.69 58.57 77 63 C77.35 64.18 77.7 65.35 78.06 66.56 C79.01 70.05 79.75 73.54 80.44 77.08 C80.9 79.22 80.9 79.22 83 81 C83.12 84.12 83.12 84.12 83 87 C83.66 87.33 84.32 87.66 85 88 C86.29 91.95 87.23 95.92 88 100 C88.46 102.15 88.91 103.84 89.97 105.77 C91.56 109.22 91.88 112.81 92.44 116.54 C92.81 119.16 92.81 119.16 95 121 C95.89 123.5 95.89 123.5 96.69 126.44 C96.96 127.41 97.23 128.37 97.51 129.37 C98 132 98 132 97 135 C97.66 135 98.32 135 99 135 C99.12 135.93 99.25 136.86 99.38 137.81 C99.82 141.14 99.82 141.14 102 144 C102.12 147.19 102.12 147.19 102 150 C102.66 150 103.32 150 104 150 C104.12 151.09 104.25 152.19 104.38 153.31 C104.75 157.07 104.75 157.07 107 160 C107 161.67 107 163.33 107 165 C107.66 165.66 108.32 166.32 109 167 C109.57 169.3 110.06 171.61 110.5 173.94 C111.49 179.27 111.49 179.27 114 184 C116.49 190.78 119 198.72 119 206 C119.66 206 120.32 206 121 206 C121.14 206.97 121.29 207.94 121.44 208.94 C121.68 211.86 121.68 211.86 123 213 C123.14 214.09 123.29 215.19 123.44 216.31 C123.92 219.5 124.44 221.28 126 224 C126.9 226.69 127.28 228.89 127.56 231.69 C127.65 232.5 127.73 233.3 127.82 234.14 C127.88 234.75 127.94 235.37 128 236 C128.66 236 129.32 236 130 236 C130.33 238.31 130.66 240.62 131 243 C131.33 243 131.66 243 132 243 C132 245.64 132 248.28 132 251 C132.66 251 133.32 251 134 251 C136.06 256.11 137.26 260.52 138 266 C138.37 266.72 138.74 267.44 139.12 268.19 C140 270 140 270 139.62 272.25 C139.32 273.12 139.32 273.12 139 274 C139.99 274.33 140.98 274.66 142 275 C143.37 274.05 144.7 273.05 146 272 C146.66 272 147.32 272 148 272 C147.77 271.44 147.55 270.89 147.31 270.31 C146.87 267.04 148.06 265.58 150 263 C150.66 263 151.32 263 152 263 C152.12 262.03 152.25 261.06 152.38 260.06 C152.68 258.55 152.68 258.55 153 257 C153.66 256.67 154.32 256.34 155 256 C155.34 254.67 155.67 253.33 156 252 C157.16 250.15 157.16 250.15 158.5 248.38 C159.84 246.59 161 245 162 243 C162.67 241.67 163.33 240.33 164 239 C164.66 239 165.32 239 166 239 C165.94 237.58 165.94 237.58 165.88 236.12 C166 233 166 233 168 231 C168.7 229.68 169.37 228.35 170 227 C170.35 226.34 170.7 225.68 171.06 225 C172.08 223.07 172.08 223.07 172.31 221.06 C173.35 217.96 175.72 216.28 178 214 C178 213.01 178 212.02 178 211 C179.3 208.98 180.64 206.98 182 205 C182.33 204.01 182.66 203.02 183 202 C183.66 201.34 184.32 200.68 185 200 C185.33 199.01 185.66 198.02 186 197 C187 194 187 194 189 191 C189.33 190.34 189.66 189.68 190 189 C190.47 188.44 190.95 187.89 191.44 187.31 C193.2 184.96 193.2 184.96 193.94 181.62 C195.07 177.77 196.69 175.25 199 172 C199.7 170.68 200.37 169.35 201 168 C201.33 167.34 201.66 166.68 202 166 C202.66 166 203.32 166 204 166 C204 164.02 204 162.04 204 160 C204.99 159.67 205.98 159.34 207 159 C207.27 158.3 207.54 157.6 207.81 156.88 C209.46 152.88 211.69 149.8 215 147 C218.31 146.25 218.31 146.25 222 146 C225.04 145.12 228.02 144.07 231 143 C231.33 143.66 231.66 144.32 232 145 C233.98 145 235.96 145 238 145 C238 145.66 238 146.32 238 147 C238.72 147.27 239.44 147.54 240.19 147.81 C246.01 150.27 248.46 152.07 251 158 C251.41 158.74 251.83 159.49 252.25 160.25 C252.5 160.83 252.75 161.4 253 162 C252.67 162.66 252.34 163.32 252 164 C252.66 164 253.32 164 254 164 C254.03 165.92 254.05 167.83 254.06 169.75 C254.07 170.82 254.09 171.88 254.1 172.98 C253.96 177.3 253.41 179.39 251 183 C250.53 184.87 250.07 186.73 249.64 188.61 C248.64 192.35 247.26 195.95 245.9 199.58 C245.23 201.38 244.61 203.18 244 205 C243.43 206.54 242.84 208.07 242.26 209.61 C241.91 210.51 241.57 211.41 241.21 212.34 C240.68 213.75 240.68 213.75 240.12 215.19 C239.42 217.04 238.71 218.88 238.01 220.73 C237.67 221.62 237.33 222.51 236.97 223.43 C236.08 225.79 235.21 228.16 234.35 230.54 C233 234 233 234 231.31 236.19 C229.59 238.57 229.85 240.12 230 243 C229.67 243.99 229.34 244.98 229 246 C228.34 246 227.68 246 227 246 C226.86 247.09 226.71 248.19 226.56 249.31 C225.99 253.04 224.91 256.28 223.59 259.79 C223.32 260.51 223.05 261.22 222.78 261.95 C222.5 262.69 222.22 263.43 221.94 264.19 C221.66 264.94 221.37 265.69 221.08 266.46 C220.39 268.31 219.69 270.15 219 272 C218.67 272 218.34 272 218 272 C217.75 273.11 217.5 274.23 217.25 275.38 C216 280.45 214.03 285.19 212 290 C211.34 290 210.68 290 210 290 C210.33 290.99 210.66 291.98 211 293 C210.22 295.7 210.22 295.7 209.06 298.69 C208.68 299.68 208.3 300.68 207.91 301.7 C207.61 302.46 207.31 303.22 207 304 C206.34 304 205.68 304 205 304 C205.33 304.99 205.66 305.98 206 307 C205.19 309.37 205.19 309.37 204 312 C202.51 315.62 201.21 319.27 200 323 C199.34 323 198.68 323 198 323 C197.95 323.6 197.9 324.21 197.85 324.83 C197.78 325.63 197.7 326.43 197.62 327.25 C197.56 328.04 197.49 328.83 197.41 329.64 C196.98 332.09 196.21 333.85 195 336 C194.34 336 193.68 336 193 336 C193.2 336.56 193.4 337.13 193.61 337.71 C194.11 340.62 193.44 342 192.25 344.69 C190.5 348.77 189.02 352.84 187.71 357.09 C187 359 187 359 185 362 C184.69 363.01 184.38 364.02 184.06 365.06 C183 368 183 368 180 370 C180.66 370 181.32 370 182 370 C182 370.99 182 371.98 182 373 C181.34 373 180.68 373 180 373 C179.67 375.31 179.34 377.62 179 380 C178.67 380 178.34 380 178 380 C177.73 381.01 177.46 382.02 177.19 383.06 C176.44 385.7 175.55 388.18 174.44 390.69 C173.35 393.18 172.53 395.36 172 398 C171.34 398 170.68 398 170 398 C170.33 398.99 170.66 399.98 171 401 C167.37 408.25 161.47 414.2 155 419 C154.01 419 153.02 419 152 419 C151.67 419.66 151.34 420.32 151 421 C148.37 422 148.37 422 145 423 C143.82 423.39 142.65 423.78 141.44 424.19 C137.96 425.01 136.38 424.8 133 424 C132.24 424.16 131.47 424.33 130.69 424.5 C121.85 426.14 114.44 421.99 107.31 417.19 C103.97 414.02 100.77 410.69 98 407 C98 406.34 98 405.68 98 405 C97.34 405 96.68 405 96 405 C94.82 402.75 93.66 400.5 92.5 398.25 C92.17 397.62 91.83 396.98 91.49 396.33 C89.73 392.88 89 390.95 89 387 C88.34 386.67 87.68 386.34 87 386 C86.15 384.26 86.15 384.26 85.38 382.12 C85.11 381.43 84.85 380.73 84.59 380.01 C84 378 84 378 84 375 C83.34 375 82.68 375 82 375 C81.9 374.32 81.81 373.65 81.71 372.95 C80.83 369.31 79.32 366.1 77.69 362.75 C77.05 361.41 76.41 360.07 75.77 358.73 C75.47 358.09 75.16 357.45 74.84 356.79 C73.79 354.54 72.79 352.28 71.81 350 C70.41 346.8 68.76 343.85 66.99 340.84 C65.46 338 64.36 335.01 63.19 332 C59.35 322.34 55.03 312.95 50.28 303.7 C48.73 300.43 47.62 297.13 46.64 293.64 C46.13 291.78 46.13 291.78 44 291 C43.36 289.36 43.36 289.36 42.75 287.19 C41.54 283.32 39.99 279.85 38.12 276.25 C35.42 271 33.29 265.67 31.23 260.13 C29.71 256.25 27.87 252.6 25.92 248.93 C25 247 25 247 25 245 C24.34 245 23.68 245 23 245 C22.91 244.33 22.82 243.65 22.72 242.96 C21.82 239.25 20.19 236.05 18.44 232.69 C18.11 232.04 17.78 231.4 17.44 230.73 C16.63 229.15 15.82 227.58 15 226 C14.81 226.6 14.61 227.21 14.41 227.83 C14.02 229.03 14.02 229.03 13.62 230.25 C13.37 231.04 13.11 231.83 12.85 232.64 C12.05 234.87 11.1 236.9 10 239 C8.88 241.01 8.88 241.01 8.56 243.5 C8 246 8 246 6 248 C5.62 249.99 5.29 251.99 5 254 C4.14 256.57 3.17 258.96 2.06 261.44 C1.72 262.2 1.38 262.96 1.04 263.75 C0.36 265.22 -0.34 266.68 -1.07 268.13 C-2.07 270.08 -2.07 270.08 -3 272.5 C-4 275 -4 275 -5.12 277.06 C-6.27 279.25 -6.27 279.25 -6 283 C-6.66 283.33 -7.32 283.66 -8 284 C-8.34 286.33 -8.67 288.67 -9 291 C-9.66 291.66 -10.32 292.32 -11 293 C-11.72 295.15 -12.38 297.32 -13 299.5 C-14.74 305.59 -14.74 305.59 -16.5 308.38 C-18.01 311.02 -18.53 313.02 -19 316 C-20.06 319.18 -21.41 321.97 -23.06 324.88 C-24.24 327.54 -24.61 330.12 -25 333 C-25.66 333 -26.32 333 -27 333 C-27.33 334.98 -27.66 336.96 -28 339 C-28.66 339 -29.32 339 -30 339 C-29.94 339.85 -29.88 340.69 -29.81 341.56 C-30.03 345.61 -31.31 348.34 -33 352 C-33.16 352.7 -33.33 353.4 -33.5 354.12 C-34 356 -34 356 -35.5 358.44 C-37.04 361.07 -37.47 363.04 -38 366 C-39.06 368.31 -39.06 368.31 -40 370 C-40.33 370 -40.66 370 -41 370 C-41.2 370.84 -41.41 371.69 -41.62 372.55 C-42.03 374.2 -42.03 374.2 -42.44 375.88 C-42.7 376.97 -42.97 378.06 -43.25 379.18 C-44 382 -44 382 -45 384 C-45.66 384 -46.32 384 -47 384 C-46.67 384.99 -46.34 385.98 -46 387 C-46.96 389.4 -48.28 391.47 -49.62 393.69 C-51.09 395.69 -51.09 395.69 -51 397 C-53.14 406.29 -53.14 406.29 -55 410 C-55.33 410.99 -55.66 411.98 -56 413 C-56.66 413.33 -57.32 413.66 -58 414 C-57.94 414.68 -57.88 415.36 -57.81 416.06 C-58.05 419.83 -59.42 422.59 -61 426 C-61.33 426.99 -61.66 427.98 -62 429 C-62.68 430.73 -63.37 432.46 -64.06 434.19 C-64.42 435.09 -64.79 435.99 -65.16 436.92 C-65.44 437.61 -65.71 438.29 -66 439 C-66.33 439 -66.66 439 -67 439 C-67.19 440.14 -67.19 440.14 -67.38 441.31 C-68 444 -68 444 -70 447 C-70.66 447.33 -71.32 447.66 -72 448 C-71.79 448.56 -71.59 449.11 -71.38 449.69 C-70.89 452.66 -71.73 454.32 -73 457 C-73.66 457 -74.32 457 -75 457 C-74.67 457.99 -74.34 458.98 -74 460 C-74.61 461.36 -75.29 462.69 -76 464 C-76.8 466.57 -77.51 469.16 -78.22 471.76 C-79 474 -79 474 -81 476 C-81.16 476.99 -81.33 477.98 -81.5 479 C-82 482 -82 482 -84 484 C-84.39 485.65 -84.72 487.32 -85 489 C-85.6 491.98 -85.78 492.78 -88 495 C-88.67 497.33 -89.34 499.67 -90 502 C-91 504 -92 506 -93 508 C-93 508.99 -93 509.98 -93 511 C-93.99 511 -94.98 511 -96 511 C-95.78 511.55 -95.55 512.11 -95.32 512.68 C-94.87 515.97 -96.06 517.42 -97.81 520.19 C-98.36 521.07 -98.9 521.95 -99.46 522.86 C-101 525 -101 525 -103 526 C-102.67 526.66 -102.34 527.32 -102 528 C-102.66 528 -103.32 528 -104 528 C-104.23 528.72 -104.45 529.44 -104.69 530.19 C-106.26 533.56 -108.35 535.41 -111 538 C-111.54 538.91 -112.07 539.82 -112.62 540.75 C-115.82 545.84 -121.17 549.55 -126 553 C-126.66 553 -127.32 553 -128 553 C-128.33 553.66 -128.66 554.32 -129 555 C-129.66 555 -130.32 555 -131 555 C-131.33 555.99 -131.66 556.98 -132 558 C-133.18 558.19 -133.18 558.19 -134.38 558.38 C-137.14 558.79 -137.14 558.79 -139 561 C-143.95 564.06 -147.35 564.29 -153 564 C-152.67 564.66 -152.34 565.32 -152 566 C-152.75 566.12 -153.5 566.24 -154.27 566.37 C-155.74 566.62 -155.74 566.62 -157.25 566.88 C-158.22 567.04 -159.2 567.2 -160.2 567.37 C-162.93 567.85 -162.93 567.85 -164.85 569.02 C-169.05 570.94 -173.83 570.34 -178.38 570.31 C-179.45 570.31 -180.53 570.31 -181.63 570.31 C-190.88 570.19 -199.2 568.93 -208 566 C-208.76 565.79 -209.52 565.57 -210.3 565.35 C-215.97 563.75 -220.74 562.26 -225 558 C-225.76 557.71 -226.53 557.42 -227.31 557.12 C-230.42 555.83 -232.42 554.16 -235 552 C-236.29 551.06 -237.58 550.12 -238.88 549.19 C-247.26 542.89 -255.21 534.9 -259 525 C-259.62 524.11 -260.24 523.23 -260.88 522.31 C-264 517.45 -267 511.87 -267 506 C-267.66 506 -268.32 506 -269 506 C-270.23 498.59 -271.22 491.24 -271.78 483.75 C-272.07 480.14 -272.52 476.58 -273 473 C-272.67 473 -272.34 473 -272 473 C-272.03 471.79 -272.03 471.79 -272.07 470.55 C-272.1 468.95 -272.1 468.95 -272.12 467.31 C-272.16 465.73 -272.16 465.73 -272.2 464.11 C-272 460.97 -271.2 458.88 -270 456 C-270.33 455.34 -270.66 454.68 -271 454 C-270.34 454 -269.68 454 -269 454 C-269 451.69 -269 449.38 -269 447 C-268.34 446.67 -267.68 446.34 -267 446 C-266.64 444.01 -266.31 442 -266 440 C-264.96 436.94 -264.29 435.29 -262 433 C-261.25 431.48 -260.54 429.93 -259.88 428.38 C-259.52 427.56 -259.17 426.74 -258.8 425.9 C-258.54 425.27 -258.27 424.65 -258 424 C-257.34 424 -256.68 424 -256 424 C-254.42 421.05 -253.1 418.48 -252.44 415.19 C-252.29 414.47 -252.15 413.74 -252 413 C-251.34 412.67 -250.68 412.34 -250 412 C-249.67 411.01 -249.34 410.02 -249 409 C-248.5 408.57 -248.01 408.13 -247.5 407.69 C-245.73 406 -245.73 406 -245.56 403.06 C-244.9 399.46 -243.76 398.31 -241 396 C-241.66 395.67 -242.32 395.34 -243 395 C-242.22 394.44 -241.43 393.89 -240.62 393.31 C-237.87 390.88 -237.06 389.45 -236 386 C-235.67 385.01 -235.34 384.02 -235 383 C-234.67 383.33 -234.34 383.66 -234 384 C-233.9 383.07 -233.79 382.14 -233.69 381.19 C-232.96 377.82 -232.47 377.17 -230 375 C-228.82 372.97 -228.06 371.31 -227.62 369 C-226.77 366.28 -225 365 -223 363 C-222.37 360.89 -222.37 360.89 -222 359 C-221.34 358.67 -220.68 358.34 -220 358 C-220 357.01 -220 356.02 -220 355 C-217.46 349.23 -217.46 349.23 -215 348 C-213.98 345.19 -213.98 345.19 -213.62 342.94 C-213 341 -213 341 -210 339 C-209.75 336.42 -209.75 336.42 -210 334 C-209.01 333.67 -208.02 333.34 -207 333 C-207 332.34 -207 331.68 -207 331 C-206.34 330.34 -205.68 329.68 -205 329 C-203.97 326.2 -203.97 326.2 -203.69 324 C-203 322 -203 322 -200.94 320.56 C-199.98 319.79 -199.98 319.79 -199 319 C-198.67 316.37 -198.67 316.37 -199 314 C-198.34 313.67 -197.68 313.34 -197 313 C-195.98 310.67 -194.99 308.34 -194 306 C-193.34 305.34 -192.68 304.68 -192 304 C-191.67 303.01 -191.34 302.02 -191 301 C-190.53 300.55 -190.05 300.09 -189.56 299.62 C-187.62 297.6 -186.94 295.62 -186 293 C-185 291 -185 291 -183 288.12 C-181.26 285.4 -180.66 284.02 -180 281 C-178.56 277.87 -177.44 275.44 -175 273 C-174.81 271.82 -174.81 271.82 -174.62 270.62 C-174 268 -174 268 -171.94 266 C-171.3 265.34 -170.66 264.68 -170 264 C-170.02 263.22 -170.04 262.43 -170.06 261.62 C-169.96 257.51 -167.83 255.9 -165 253 C-164.34 253 -163.68 253 -163 253 C-163.1 252.18 -163.21 251.35 -163.31 250.5 C-162.89 245.81 -160.89 242.66 -158 239 C-157.34 238.67 -156.68 238.34 -156 238 C-156.1 237.28 -156.21 236.56 -156.31 235.81 C-155.87 231.85 -153.96 230.53 -151 228 C-150.34 227.67 -149.68 227.34 -149 227 C-149 225.68 -149 224.36 -149 223 C-148.34 222.34 -147.68 221.68 -147 221 C-146.3 219.35 -145.64 217.68 -145 216 C-143.81 213.47 -142.56 211.34 -141 209 C-140.67 208.01 -140.34 207.02 -140 206 C-137.35 200.35 -137.35 200.35 -135 198 C-134.65 196.67 -134.31 195.34 -134 194 C-133.36 192.65 -132.7 191.31 -132 190 C-131.34 190 -130.68 190 -130 190 C-128.89 188.12 -128.89 188.12 -128 186 C-128.33 185.34 -128.66 184.68 -129 184 C-128.66 183.54 -128.32 183.08 -127.98 182.61 C-125.72 179.5 -123.58 176.52 -122 173 C-121.65 172.34 -121.3 171.68 -120.94 171 C-119.93 169.07 -119.93 169.07 -119.66 167.12 C-118.59 163.69 -116.05 161.63 -113.59 159.1 C-111.78 156.71 -111.51 154.92 -111 152 C-110.34 151.67 -109.68 151.34 -109 151 C-108.86 150.4 -108.71 149.8 -108.56 149.19 C-108 147 -108 147 -106.5 145.06 C-104.76 142.67 -104.5 140.89 -104 138 C-102.94 135.69 -102.94 135.69 -102 134 C-101.01 134 -100.02 134 -99 134 C-98.69 132.91 -98.38 131.81 -98.06 130.69 C-96.19 124.18 -96.19 124.18 -94.62 122.69 C-91.65 119.6 -90 116.28 -90 112 C-88.47 109.22 -86.76 106.64 -85 104 C-84.32 102.67 -83.65 101.34 -83 100 C-82.34 100 -81.68 100 -81 100 C-81.04 99.05 -81.08 98.1 -81.12 97.12 C-81 94 -81 94 -79 92 C-78.67 91.34 -78.34 90.68 -78 90 C-77.34 90.33 -76.68 90.66 -76 91 C-76 90.01 -76 89.02 -76 88 C-76.66 87.67 -77.32 87.34 -78 87 C-77.36 86.77 -76.72 86.55 -76.06 86.31 C-75.38 85.88 -74.7 85.45 -74 85 C-73.86 84.26 -73.71 83.51 -73.56 82.75 C-72.9 79.5 -71.37 78.02 -69.2 75.6 C-67.28 73.03 -66.81 70.07 -66 67 C-65.07 65.34 -64.14 63.67 -63.15 62.04 C-60.79 57.85 -58.94 53.4 -57 49 C-56.34 49.33 -55.68 49.66 -55 50 C-53.54 47.35 -53 46.11 -53 43 C-51.67 41 -50.33 39 -49 37 C-48.81 36.04 -48.81 36.04 -48.62 35.06 C-47.78 32.28 -46.06 30.99 -44 29 C-44 28.34 -44 27.68 -44 27 C-43.01 26.5 -43.01 26.5 -42 26 C-41.79 25.3 -41.59 24.6 -41.38 23.88 C-39.59 20.15 -37.1 18.24 -33.96 15.63 C-31.9 13.97 -31.9 13.97 -29.81 11.81 C-24.98 6.98 -21.03 5.21 -14.43 3.61 C-12.01 3.1 -12.01 3.1 -10 2 C-6.6 1.17 -3.49 0.9 0 1 C0 0.67 0 0.34 0 0 Z M-22 7 C-22.33 7.66 -22.66 8.32 -23 9 C-22.01 8.67 -21.02 8.34 -20 8 C-20.66 7.67 -21.32 7.34 -22 7 Z M-40 23 C-39 25 -39 25 -39 25 Z M238 213 C239 215 239 215 239 215 Z M236 219 C237 221 237 221 237 221 Z M-155 234 C-154 236 -154 236 -154 236 Z M128 238 C129 240 129 240 129 240 Z M-159 242 C-158 244 -158 244 -158 244 Z M-161 246 C-160 248 -160 248 -160 248 Z M156 253 C157 255 157 255 157 255 Z M222 257 C223 259 223 259 223 259 Z M-168 259 C-168 262 -168 262 -168 262 Z M135 264 C136 266 136 266 136 266 Z M149 266 C150 268 150 268 150 268 Z M-173 268 C-172 270 -172 270 -172 270 Z M-174 270 C-173 272 -173 272 -173 272 Z M145 275 C144.01 275.33 143.02 275.66 142 276 C142 276.66 142 277.32 142 278 C143.32 277.67 144.64 277.34 146 277 C145.67 276.34 145.34 275.68 145 275 Z M208 293 C209 296 209 296 209 296 Z M198 320 C199 322 199 322 199 322 Z M196 324 C196 325.65 196 327.3 196 329 C196.33 329 196.66 329 197 329 C197 327.35 197 325.7 197 324 C196.67 324 196.34 324 196 324 Z M-209 335 C-208 337 -208 337 -208 337 Z M189 345 C190 348 190 348 190 348 Z M-40 363 C-39 366 -39 366 -39 366 Z M-44 373 C-43 375 -43 375 -43 375 Z M-46 375 C-45 377 -45 377 -45 377 Z M-48 381 C-47 383 -47 383 -47 383 Z M-58 406 C-57 408 -57 408 -57 408 Z M-60 412 C-59 414 -59 414 -59 414 Z M149 418 C148.67 418.66 148.34 419.32 148 420 C148.66 420 149.32 420 150 420 C149.67 419.34 149.34 418.68 149 418 Z M-265 440 C-264 442 -264 442 -264 442 Z M-268 448 C-267 450 -267 450 -267 450 Z M-91 497 C-90 499 -90 499 -90 499 Z M-107 530 C-106 532 -106 532 -106 532 Z M-112 535 C-111 537 -111 537 -111 537 Z " fill="#F50FFD" transform="translate(636,194)"/>
<path d="M0 0 C19.17 -0.35 38.4 2.11 53 16 C53 16.66 53 17.32 53 18 C53.66 18 54.32 18 55 18 C55 18.66 55 19.32 55 20 C55.99 20.33 56.98 20.66 58 21 C58 21.66 58 22.32 58 23 C58.66 23 59.32 23 60 23 C65.41 29.8 69.55 38.72 72 47 C72.31 47.91 72.62 48.81 72.94 49.75 C74.37 54.14 75.69 58.57 77 63 C77.35 64.18 77.7 65.35 78.06 66.56 C79.01 70.05 79.75 73.54 80.44 77.08 C80.9 79.22 80.9 79.22 83 81 C83.12 84.12 83.12 84.12 83 87 C83.66 87.33 84.32 87.66 85 88 C86.29 91.95 87.23 95.92 88 100 C88.46 102.15 88.91 103.84 89.97 105.77 C91.56 109.22 91.88 112.81 92.44 116.54 C92.81 119.16 92.81 119.16 95 121 C95.89 123.5 95.89 123.5 96.69 126.44 C96.96 127.41 97.23 128.37 97.51 129.37 C98 132 98 132 97 135 C97.66 135 98.32 135 99 135 C99.12 135.93 99.25 136.86 99.38 137.81 C99.82 141.14 99.82 141.14 102 144 C102.12 147.19 102.12 147.19 102 150 C102.66 150 103.32 150 104 150 C104.12 151.09 104.25 152.19 104.38 153.31 C104.75 157.07 104.75 157.07 107 160 C107 161.67 107 163.33 107 165 C107.66 165.66 108.32 166.32 109 167 C109.57 169.3 110.06 171.61 110.5 173.94 C111.49 179.27 111.49 179.27 114 184 C116.49 190.78 119 198.72 119 206 C119.66 206 120.32 206 121 206 C121.14 206.97 121.29 207.94 121.44 208.94 C121.68 211.86 121.68 211.86 123 213 C123.22 214.64 123.22 214.64 123.44 216.31 C123.92 219.5 124.44 221.28 126 224 C126.9 226.69 127.28 228.89 127.56 231.69 C127.65 232.5 127.73 233.3 127.82 234.14 C127.88 234.75 127.94 235.37 128 236 C128.66 236 129.32 236 130 236 C130.33 238.31 130.66 240.62 131 243 C131.33 243 131.66 243 132 243 C132 245.64 132 248.28 132 251 C132.66 251 133.32 251 134 251 C136.06 256.11 137.26 260.52 138 266 C138.37 266.72 138.74 267.44 139.12 268.19 C140 270 140 270 139.62 272.25 C139.32 273.12 139.32 273.12 139 274 C139.99 274.33 140.98 274.66 142 275 C143.37 274.05 144.7 273.05 146 272 C146.66 272 147.32 272 148 272 C147.77 271.44 147.55 270.89 147.31 270.31 C146.87 267.04 148.06 265.58 150 263 C150.66 263 151.32 263 152 263 C152.12 262.03 152.25 261.06 152.38 260.06 C152.68 258.55 152.68 258.55 153 257 C153.66 256.67 154.32 256.34 155 256 C155.34 254.67 155.67 253.33 156 252 C157.16 250.15 157.16 250.15 158.5 248.38 C159.84 246.59 161 245 162 243 C162.67 241.67 163.33 240.33 164 239 C164.66 239 165.32 239 166 239 C165.94 237.58 165.94 237.58 165.88 236.12 C166 233 166 233 168 231 C168.7 229.68 169.37 228.35 170 227 C170.35 226.34 170.7 225.68 171.06 225 C172.08 223.07 172.08 223.07 172.31 221.06 C173.35 217.96 175.72 216.28 178 214 C178 213.01 178 212.02 178 211 C179.3 208.98 180.64 206.98 182 205 C182.33 204.01 182.66 203.02 183 202 C183.66 201.34 184.32 200.68 185 200 C185.33 199.01 185.66 198.02 186 197 C187 194 187 194 189 191 C189.33 190.34 189.66 189.68 190 189 C190.47 188.44 190.95 187.89 191.44 187.31 C193.2 184.96 193.2 184.96 193.94 181.62 C195.07 177.77 196.69 175.25 199 172 C199.7 170.68 200.37 169.35 201 168 C201.33 167.34 201.66 166.68 202 166 C202.66 166 203.32 166 204 166 C204 164.02 204 162.04 204 160 C204.99 159.67 205.98 159.34 207 159 C207.27 158.3 207.54 157.6 207.81 156.88 C209.46 152.88 211.69 149.8 215 147 C218.31 146.25 218.31 146.25 222 146 C225.04 145.12 228.02 144.07 231 143 C231.33 143.66 231.66 144.32 232 145 C233.98 145 235.96 145 238 145 C238 145.66 238 146.32 238 147 C238.72 147.27 239.44 147.54 240.19 147.81 C246.01 150.27 248.46 152.07 251 158 C251.41 158.74 251.83 159.49 252.25 160.25 C252.5 160.83 252.75 161.4 253 162 C252.67 162.66 252.34 163.32 252 164 C252.66 164 253.32 164 254 164 C254.03 165.92 254.05 167.83 254.06 169.75 C254.07 170.82 254.09 171.88 254.1 172.98 C253.96 177.3 253.41 179.39 251 183 C250.53 184.87 250.07 186.73 249.64 188.61 C248.64 192.35 247.26 195.95 245.9 199.58 C245.23 201.38 244.61 203.18 244 205 C243.43 206.54 242.84 208.07 242.26 209.61 C241.74 210.96 241.74 210.96 241.21 212.34 C240.86 213.28 240.5 214.22 240.12 215.19 C239.42 217.04 238.71 218.88 238.01 220.73 C237.67 221.62 237.33 222.51 236.97 223.43 C236.08 225.79 235.21 228.16 234.35 230.54 C233 234 233 234 231.31 236.19 C229.59 238.57 229.85 240.12 230 243 C229.67 243.99 229.34 244.98 229 246 C228.34 246 227.68 246 227 246 C226.86 247.09 226.71 248.19 226.56 249.31 C225.99 253.04 224.91 256.28 223.59 259.79 C223.32 260.51 223.05 261.22 222.78 261.95 C222.5 262.69 222.22 263.43 221.94 264.19 C221.66 264.94 221.37 265.69 221.08 266.46 C220.39 268.31 219.69 270.15 219 272 C218.67 272 218.34 272 218 272 C217.75 273.11 217.5 274.23 217.25 275.38 C216 280.45 214.03 285.19 212 290 C211.34 290 210.68 290 210 290 C210.33 290.99 210.66 291.98 211 293 C210.22 295.7 210.22 295.7 209.06 298.69 C208.68 299.68 208.3 300.68 207.91 301.7 C207.61 302.46 207.31 303.22 207 304 C206.34 304 205.68 304 205 304 C205.33 304.99 205.66 305.98 206 307 C205.19 309.37 205.19 309.37 204 312 C202.51 315.62 201.21 319.27 200 323 C199.34 323 198.68 323 198 323 C197.95 323.6 197.9 324.21 197.85 324.83 C197.78 325.63 197.7 326.43 197.62 327.25 C197.56 328.04 197.49 328.83 197.41 329.64 C196.98 332.09 196.21 333.85 195 336 C194.34 336 193.68 336 193 336 C193.2 336.56 193.4 337.13 193.61 337.71 C194.11 340.62 193.44 342 192.25 344.69 C190.5 348.77 189.02 352.84 187.71 357.09 C187 359 187 359 185 362 C184.69 363.01 184.38 364.02 184.06 365.06 C183 368 183 368 180 370 C180.66 370 181.32 370 182 370 C182 370.99 182 371.98 182 373 C181.34 373 180.68 373 180 373 C179.67 375.31 179.34 377.62 179 380 C178.67 380 178.34 380 178 380 C177.73 381.01 177.46 382.02 177.19 383.06 C176.44 385.7 175.55 388.18 174.44 390.69 C173.35 393.18 172.53 395.36 172 398 C171.34 398 170.68 398 170 398 C170.33 398.99 170.66 399.98 171 401 C167.37 408.25 161.47 414.2 155 419 C154.01 419 153.02 419 152 419 C151.67 419.66 151.34 420.32 151 421 C148.37 422 148.37 422 145 423 C143.82 423.39 142.65 423.78 141.44 424.19 C137.96 425.01 136.38 424.8 133 424 C132.24 424.16 131.47 424.33 130.69 424.5 C121.85 426.14 114.44 421.99 107.31 417.19 C103.97 414.02 100.77 410.69 98 407 C98 406.34 98 405.68 98 405 C97.34 405 96.68 405 96 405 C94.82 402.75 93.66 400.5 92.5 398.25 C92.17 397.62 91.83 396.98 91.49 396.33 C89.73 392.88 89 390.95 89 387 C88.34 386.67 87.68 386.34 87 386 C86.15 384.26 86.15 384.26 85.38 382.12 C85.11 381.43 84.85 380.73 84.59 380.01 C84 378 84 378 84 375 C83.34 375 82.68 375 82 375 C81.9 374.32 81.81 373.65 81.71 372.95 C80.83 369.31 79.32 366.1 77.69 362.75 C77.05 361.41 76.41 360.07 75.77 358.73 C75.47 358.09 75.16 357.45 74.84 356.79 C73.79 354.54 72.79 352.28 71.81 350 C70.41 346.8 68.76 343.85 66.99 340.84 C65.46 338 64.36 335.01 63.19 332 C59.35 322.34 55.03 312.95 50.28 303.7 C48.73 300.43 47.62 297.13 46.64 293.64 C46.13 291.78 46.13 291.78 44 291 C43.36 289.36 43.36 289.36 42.75 287.19 C41.54 283.32 39.99 279.85 38.12 276.25 C35.42 271 33.29 265.67 31.23 260.13 C29.71 256.25 27.87 252.6 25.92 248.93 C25 247 25 247 25 245 C24.34 245 23.68 245 23 245 C22.91 244.33 22.82 243.65 22.72 242.96 C21.82 239.25 20.19 236.05 18.44 232.69 C18.11 232.04 17.78 231.4 17.44 230.73 C16.63 229.15 15.82 227.58 15 226 C14.34 227.32 13.68 228.64 13 230 C10.79 228.27 10.04 227.14 9.26 224.42 C8.92 219.98 9.97 216.57 11.31 212.38 C11.54 211.62 11.76 210.87 12 210.1 C13.09 206.55 14.3 203.31 16 200 C15.82 197.06 15.2 196.18 13 194.19 C11 192 11 192 10.62 188.81 C9.92 184.53 8.39 181.46 6.06 177.88 C5.66 177.26 5.26 176.64 4.85 176 C1.72 171.45 -1.26 169.13 -6.45 167.06 C-13.57 164.1 -19.47 159.18 -24 153 C-24.66 153.66 -25.32 154.32 -26 155 C-29.3 154.01 -32.6 153.02 -36 152 C-35.34 151.67 -34.68 151.34 -34 151 C-34 150.34 -34 149.68 -34 149 C-34.66 148.79 -35.32 148.59 -36 148.38 C-39.49 146.78 -42.22 144.69 -45.23 142.34 C-46.97 140.94 -46.97 140.94 -49 140 C-49 140.66 -49 141.32 -49 142 C-57.78 146.2 -57.78 146.2 -62.44 145.44 C-64.79 144.12 -66.43 143.18 -68 141 C-68 140.01 -68 139.02 -68 138 C-68.93 138.04 -69.86 138.08 -70.81 138.12 C-74 138 -74 138 -77 136 C-77.99 136 -78.98 136 -80 136 C-80.11 136.59 -80.22 137.18 -80.33 137.79 C-81.28 142.5 -82.42 145.91 -85 150 C-85.72 152.32 -86.4 154.65 -87 157 C-88.65 157.33 -90.3 157.66 -92 158 C-92.12 157.05 -92.25 156.1 -92.38 155.12 C-92.72 151.91 -92.72 151.91 -95 150 C-94.62 147.38 -94.62 147.38 -94 145 C-96.02 146.93 -97.42 148.63 -99 151 C-100.49 151.99 -100.49 151.99 -102 153 C-102.97 154.34 -103.88 155.72 -104.75 157.12 C-106.87 160.42 -109.09 163.31 -111.75 166.19 C-114.55 169.27 -116.07 171.86 -117 176 C-118.32 176 -119.64 176 -121 176 C-121 176.66 -121 177.32 -121 178 C-121.99 177.67 -122.98 177.34 -124 177 C-123 174.99 -121.99 172.98 -120.94 171 C-119.93 169.07 -119.93 169.07 -119.66 167.12 C-118.59 163.69 -116.05 161.63 -113.59 159.1 C-111.78 156.71 -111.51 154.92 -111 152 C-110.34 151.67 -109.68 151.34 -109 151 C-108.86 150.4 -108.71 149.8 -108.56 149.19 C-108 147 -108 147 -106.5 145.06 C-104.76 142.67 -104.5 140.89 -104 138 C-102.94 135.69 -102.94 135.69 -102 134 C-101.01 134 -100.02 134 -99 134 C-98.69 132.91 -98.38 131.81 -98.06 130.69 C-96.19 124.18 -96.19 124.18 -94.62 122.69 C-91.65 119.6 -90 116.28 -90 112 C-88.47 109.22 -86.76 106.64 -85 104 C-84.32 102.67 -83.65 101.34 -83 100 C-82.34 100 -81.68 100 -81 100 C-81.04 99.05 -81.08 98.1 -81.12 97.12 C-81 94 -81 94 -79 92 C-78.67 91.34 -78.34 90.68 -78 90 C-77.01 90.5 -77.01 90.5 -76 91 C-76 90.01 -76 89.02 -76 88 C-76.99 87.5 -76.99 87.5 -78 87 C-77.36 86.77 -76.72 86.55 -76.06 86.31 C-75.38 85.88 -74.7 85.45 -74 85 C-73.86 84.26 -73.71 83.51 -73.56 82.75 C-72.9 79.5 -71.37 78.02 -69.2 75.6 C-67.28 73.03 -66.81 70.07 -66 67 C-65.07 65.34 -64.14 63.67 -63.15 62.04 C-60.79 57.85 -58.94 53.4 -57 49 C-56.34 49.33 -55.68 49.66 -55 50 C-53.54 47.35 -53 46.11 -53 43 C-51.67 41 -50.33 39 -49 37 C-48.81 36.04 -48.81 36.04 -48.62 35.06 C-47.78 32.28 -46.06 30.99 -44 29 C-44 28.34 -44 27.68 -44 27 C-43.01 26.5 -43.01 26.5 -42 26 C-41.79 25.3 -41.59 24.6 -41.38 23.88 C-39.59 20.15 -37.1 18.24 -33.96 15.63 C-31.9 13.97 -31.9 13.97 -29.81 11.81 C-24.98 6.98 -21.03 5.21 -14.43 3.61 C-12.01 3.1 -12.01 3.1 -10 2 C-6.6 1.17 -3.49 0.9 0 1 C0 0.67 0 0.34 0 0 Z M-22 7 C-22.33 7.66 -22.66 8.32 -23 9 C-22.01 8.67 -21.02 8.34 -20 8 C-20.66 7.67 -21.32 7.34 -22 7 Z M-40 23 C-39 25 -39 25 -39 25 Z M238 213 C239 215 239 215 239 215 Z M236 219 C237 221 237 221 237 221 Z M128 238 C129 240 129 240 129 240 Z M156 253 C157 255 157 255 157 255 Z M222 257 C223 259 223 259 223 259 Z M135 264 C136 266 136 266 136 266 Z M149 266 C150 268 150 268 150 268 Z M145 275 C144.01 275.33 143.02 275.66 142 276 C142 276.66 142 277.32 142 278 C143.32 277.67 144.64 277.34 146 277 C145.67 276.34 145.34 275.68 145 275 Z M208 293 C209 296 209 296 209 296 Z M198 320 C199 322 199 322 199 322 Z M196 324 C196 325.65 196 327.3 196 329 C196.33 329 196.66 329 197 329 C197 327.35 197 325.7 197 324 C196.67 324 196.34 324 196 324 Z M189 345 C190 348 190 348 190 348 Z M149 418 C148.67 418.66 148.34 419.32 148 420 C148.66 420 149.32 420 150 420 C149.67 419.34 149.34 418.68 149 418 Z " fill="#AE3DF0" transform="translate(636,194)"/>
<path d="M0 0 C2.12 0.31 2.12 0.31 5 1 C6.2 1.25 7.39 1.5 8.62 1.75 C12.65 3.24 12.94 4.42 15 8 C17.72 9.68 17.72 9.68 21 10 C24.67 8.7 24.67 8.7 28 7 C28.99 7 29.98 7 31 7 C31 6.34 31 5.68 31 5 C35.43 6.38 38.63 8.84 42.23 11.66 C43.97 13.06 43.97 13.06 46 14 C46.33 14.99 46.66 15.98 47 17 C50.51 18.23 50.51 18.23 54 19 C54.66 18.34 55.32 17.68 56 17 C56.35 17.48 56.71 17.97 57.07 18.47 C62.86 25.76 70.56 30.7 79.1 34.31 C82.77 36.45 84.64 39.16 86.81 42.69 C87.21 43.27 87.6 43.86 88.01 44.47 C90.11 47.78 91.22 50.41 91.6 54.33 C91.73 55.54 91.86 56.75 92 58 C94.41 60.06 94.41 60.06 97 61 C96.33 65.9 95.03 70.38 93.5 75.06 C90.29 84.06 90.29 84.06 92 93 C92.3 97.29 92.32 100.32 90 104 C88.88 106.01 88.88 106.01 88.56 108.5 C88 111 88 111 86 113 C85.62 114.99 85.29 116.99 85 119 C84.14 121.57 83.17 123.96 82.06 126.44 C81.72 127.2 81.38 127.96 81.04 128.75 C80.36 130.22 79.66 131.68 78.93 133.13 C77.93 135.08 77.93 135.08 77 137.5 C76 140 76 140 74.88 142.06 C73.73 144.25 73.73 144.25 74 148 C73.34 148.33 72.68 148.66 72 149 C71.66 151.33 71.33 153.67 71 156 C70.34 156.66 69.68 157.32 69 158 C68.28 160.15 67.62 162.32 67 164.5 C65.26 170.59 65.26 170.59 63.5 173.38 C61.99 176.02 61.47 178.02 61 181 C59.94 184.18 58.59 186.97 56.94 189.88 C55.76 192.54 55.39 195.12 55 198 C54.34 198 53.68 198 53 198 C52.67 199.98 52.34 201.96 52 204 C51.34 204 50.68 204 50 204 C50.06 204.85 50.12 205.69 50.19 206.56 C49.97 210.61 48.69 213.34 47 217 C46.84 217.7 46.67 218.4 46.5 219.12 C46 221 46 221 44.5 223.44 C42.96 226.07 42.53 228.04 42 231 C40.94 233.31 40.94 233.31 40 235 C39.67 235 39.34 235 39 235 C38.69 236.26 38.69 236.26 38.38 237.55 C37.97 239.2 37.97 239.2 37.56 240.88 C37.3 241.97 37.03 243.06 36.75 244.18 C36 247 36 247 35 249 C34.34 249 33.68 249 33 249 C33.33 249.99 33.66 250.98 34 252 C33.34 252.66 32.68 253.32 32 254 C30.35 251.03 29.56 248.34 29 245 C28.67 245 28.34 245 28 245 C27.9 243.78 27.79 242.57 27.69 241.31 C27.35 238.52 27.07 237.11 25.56 234.69 C23.9 231.82 23.59 229.94 23.12 226.69 C22.19 221.07 20.38 217.52 17 213 C16.31 212.05 15.63 211.1 14.92 210.12 C11 204.79 6.98 199.64 2.54 194.73 C1.16 193.18 -0.12 191.53 -1.38 189.88 C-4.24 186.74 -7.17 184.76 -10.74 182.5 C-12.84 181.11 -14.64 179.63 -16.5 177.94 C-23.73 171.62 -29.88 169.35 -39.44 169.5 C-46.65 169.41 -51.8 168.92 -58.09 165.09 C-62.73 162.45 -67.41 164.01 -72.25 165.31 C-75.75 166.34 -77.48 167.42 -80 170 C-82.5 169.94 -82.5 169.94 -85 169 C-86.81 166.94 -86.81 166.94 -88 165 C-88.99 165.33 -89.98 165.66 -91 166 C-91.04 167.26 -91.08 168.52 -91.12 169.81 C-91.41 172.03 -91.41 172.03 -92 174 C-94.58 175.82 -96.93 176.67 -99.93 177.59 C-105.74 179.5 -109 182.43 -113 187 C-113.56 187.63 -114.12 188.26 -114.7 188.91 C-117 191.53 -119.06 194.09 -121 197 C-121.66 197 -122.32 197 -123 197 C-125.62 200.56 -126.49 203.64 -127 208 C-127.99 207.67 -128.98 207.34 -130 207 C-130.33 207.99 -130.66 208.98 -131 210 C-131.66 208.68 -132.32 207.36 -133 206 C-131.51 205.01 -131.51 205.01 -130 204 C-129.75 201.42 -129.75 201.42 -130 199 C-129.01 198.67 -128.02 198.34 -127 198 C-127 197.34 -127 196.68 -127 196 C-126.01 195.01 -126.01 195.01 -125 194 C-123.97 191.2 -123.97 191.2 -123.69 189 C-123 187 -123 187 -120.94 185.56 C-120.3 185.05 -119.66 184.53 -119 184 C-118.67 181.37 -118.67 181.37 -119 179 C-118.34 178.67 -117.68 178.34 -117 178 C-115.98 175.67 -114.99 173.34 -114 171 C-113.01 170.01 -113.01 170.01 -112 169 C-111.67 168.01 -111.34 167.02 -111 166 C-110.53 165.55 -110.05 165.09 -109.56 164.62 C-107.62 162.6 -106.94 160.62 -106 158 C-105 156 -105 156 -103 153.12 C-101.26 150.4 -100.66 149.02 -100 146 C-98.56 142.87 -97.44 140.44 -95 138 C-94.81 136.82 -94.81 136.82 -94.62 135.62 C-94 133 -94 133 -91.94 131 C-90.98 130.01 -90.98 130.01 -90 129 C-90.02 128.22 -90.04 127.43 -90.06 126.62 C-89.96 122.51 -87.83 120.9 -85 118 C-84.34 118 -83.68 118 -83 118 C-83.15 116.76 -83.15 116.76 -83.31 115.5 C-82.89 110.81 -80.89 107.66 -78 104 C-77.34 103.67 -76.68 103.34 -76 103 C-76.15 101.92 -76.15 101.92 -76.31 100.81 C-75.87 96.85 -73.96 95.53 -71 93 C-70.34 92.67 -69.68 92.34 -69 92 C-69 90.68 -69 89.36 -69 88 C-68.34 87.34 -67.68 86.68 -67 86 C-66.3 84.35 -65.64 82.68 -65 81 C-63.81 78.47 -62.56 76.34 -61 74 C-60.5 72.51 -60.5 72.51 -60 71 C-57.35 65.35 -57.35 65.35 -55 63 C-54.65 61.67 -54.31 60.34 -54 59 C-53.36 57.65 -52.7 56.31 -52 55 C-51.34 55 -50.68 55 -50 55 C-48.89 53.12 -48.89 53.12 -48 51 C-48.33 50.34 -48.66 49.68 -49 49 C-47.25 46 -47.25 46 -45 43 C-43.68 43 -42.36 43 -41 43 C-41 42.34 -41 41.68 -41 41 C-40.34 41 -39.68 41 -39 41 C-38.5 40.01 -38.5 40.01 -38 39 C-37.67 39.33 -37.34 39.66 -37 40 C-36.94 39.11 -36.88 38.23 -36.81 37.31 C-35.8 33.18 -34.08 31.86 -31 29 C-29.64 27.02 -28.3 25.02 -27 23 C-24.8 20.14 -22.54 17.54 -20 15 C-19.32 14.11 -18.64 13.23 -17.94 12.31 C-16.98 11.17 -16.98 11.17 -16 10 C-15.34 10 -14.68 10 -14 10 C-14.04 10.78 -14.08 11.57 -14.12 12.38 C-14.29 15.16 -14.29 15.16 -12 17 C-12 17.66 -12 18.32 -12 19 C-11.01 19.99 -11.01 19.99 -10 21 C-10.66 21 -11.32 21 -12 21 C-12 21.66 -12 22.32 -12 23 C-10.02 22.88 -10.02 22.88 -8 22 C-6.96 19.82 -6.96 19.82 -6.44 17.19 C-5.53 13.36 -4.37 11.11 -2 8 C-1.61 5.68 -1.27 3.34 -1 1 C-0.67 0.67 -0.34 0.34 0 0 Z M-75 99 C-74 101 -74 101 -74 101 Z M-79 107 C-78 109 -78 109 -78 109 Z M-81 111 C-80 113 -80 113 -80 113 Z M-88 124 C-88 127 -88 127 -88 127 Z M-93 133 C-92 135 -92 135 -92 135 Z M-94 135 C-93 137 -93 137 -93 137 Z M-129 200 C-128 202 -128 202 -128 202 Z M40 228 C41 231 41 231 41 231 Z M36 238 C37 240 37 240 37 240 Z M34 240 C35 242 35 242 35 242 Z M32 246 C33 248 33 248 33 248 Z " fill="#D323F5" transform="translate(556,329)"/>
<path d="M0 0 C0.99 0.99 0.99 0.99 2 2 C5.08 2.17 5.08 2.17 8 2 C8 2.66 8 3.32 8 4 C8.72 4.27 9.44 4.54 10.19 4.81 C16.01 7.27 18.46 9.07 21 15 C21.62 16.11 21.62 16.11 22.25 17.25 C22.5 17.83 22.75 18.4 23 19 C22.67 19.66 22.34 20.32 22 21 C22.66 21 23.32 21 24 21 C24.03 22.92 24.05 24.83 24.06 26.75 C24.07 27.82 24.09 28.88 24.1 29.98 C23.96 34.3 23.41 36.39 21 40 C20.53 41.87 20.07 43.73 19.64 45.61 C18.64 49.35 17.26 52.95 15.9 56.58 C15.23 58.38 14.61 60.18 14 62 C13.43 63.54 12.84 65.07 12.26 66.61 C11.74 67.96 11.74 67.96 11.21 69.34 C10.86 70.28 10.5 71.22 10.12 72.19 C9.42 74.04 8.71 75.88 8.01 77.73 C7.5 79.07 7.5 79.07 6.97 80.43 C6.08 82.79 5.21 85.16 4.35 87.54 C3 91 3 91 1.31 93.19 C-0.41 95.57 -0.15 97.12 0 100 C-0.33 100.99 -0.66 101.98 -1 103 C-1.66 103 -2.32 103 -3 103 C-3.14 104.09 -3.29 105.19 -3.44 106.31 C-4.01 110.04 -5.09 113.28 -6.41 116.79 C-6.68 117.51 -6.95 118.22 -7.22 118.95 C-7.5 119.69 -7.78 120.43 -8.06 121.19 C-8.34 121.94 -8.63 122.69 -8.92 123.46 C-9.61 125.31 -10.31 127.15 -11 129 C-11.33 129 -11.66 129 -12 129 C-12.25 130.11 -12.5 131.23 -12.75 132.38 C-14 137.45 -15.97 142.19 -18 147 C-18.66 147 -19.32 147 -20 147 C-19.67 147.99 -19.34 148.98 -19 150 C-19.78 152.7 -19.78 152.7 -20.94 155.69 C-21.32 156.68 -21.7 157.68 -22.09 158.7 C-22.39 159.46 -22.69 160.22 -23 161 C-23.66 161 -24.32 161 -25 161 C-24.67 161.99 -24.34 162.98 -24 164 C-24.81 166.38 -24.81 166.38 -26 169 C-27.49 172.62 -28.79 176.27 -30 180 C-30.66 180 -31.32 180 -32 180 C-32.07 180.9 -32.07 180.9 -32.15 181.83 C-32.22 182.63 -32.3 183.43 -32.38 184.25 C-32.44 185.04 -32.51 185.83 -32.59 186.64 C-33.02 189.09 -33.79 190.85 -35 193 C-35.66 193 -36.32 193 -37 193 C-36.8 193.56 -36.6 194.13 -36.39 194.71 C-35.89 197.62 -36.56 199 -37.75 201.69 C-39.5 205.77 -40.98 209.84 -42.29 214.09 C-43 216 -43 216 -45 219 C-45.31 220.01 -45.62 221.02 -45.94 222.06 C-47 225 -47 225 -50 227 C-49.34 227 -48.68 227 -48 227 C-48 227.99 -48 228.98 -48 230 C-48.66 230 -49.32 230 -50 230 C-50.33 232.31 -50.66 234.62 -51 237 C-51.33 237 -51.66 237 -52 237 C-52.27 238.01 -52.54 239.02 -52.81 240.06 C-53.56 242.7 -54.45 245.18 -55.56 247.69 C-56.65 250.18 -57.47 252.36 -58 255 C-58.66 255 -59.32 255 -60 255 C-59.67 255.99 -59.34 256.98 -59 258 C-62.63 265.25 -68.53 271.2 -75 276 C-75.99 276 -76.98 276 -78 276 C-78.33 276.66 -78.66 277.32 -79 278 C-81.63 279 -81.63 279 -85 280 C-86.18 280.39 -87.35 280.78 -88.56 281.19 C-92.04 282.01 -93.62 281.8 -97 281 C-97.76 281.16 -98.53 281.33 -99.31 281.5 C-108.15 283.14 -115.56 278.99 -122.69 274.19 C-126.03 271.02 -129.23 267.69 -132 264 C-132 263.34 -132 262.68 -132 262 C-132.66 262 -133.32 262 -134 262 C-135.18 259.75 -136.34 257.5 -137.5 255.25 C-137.83 254.62 -138.17 253.98 -138.51 253.33 C-140.27 249.88 -141 247.95 -141 244 C-141.66 243.67 -142.32 243.34 -143 243 C-143.85 241.26 -143.85 241.26 -144.62 239.12 C-145.02 238.08 -145.02 238.08 -145.41 237.01 C-146 235 -146 235 -146 232 C-146.66 232 -147.32 232 -148 232 C-148.1 231.32 -148.19 230.65 -148.29 229.95 C-149.17 226.31 -150.68 223.1 -152.31 219.75 C-152.95 218.41 -153.59 217.07 -154.23 215.73 C-154.53 215.09 -154.84 214.45 -155.16 213.79 C-156.21 211.54 -157.21 209.28 -158.19 207 C-159.59 203.8 -161.24 200.85 -163.01 197.84 C-164.54 195 -165.64 192.01 -166.81 189 C-170.65 179.34 -174.97 169.95 -179.72 160.7 C-181.27 157.43 -182.38 154.13 -183.36 150.64 C-183.87 148.78 -183.87 148.78 -186 148 C-186.64 146.36 -186.64 146.36 -187.25 144.19 C-188.83 139.03 -191.28 134.5 -193.89 129.8 C-195.14 126.65 -195 125.18 -194 122 C-193.34 122 -192.68 122 -192 122 C-191.16 123.62 -190.33 125.25 -189.5 126.88 C-189.04 127.78 -188.57 128.68 -188.09 129.62 C-187 132 -187 132 -187 134 C-186.01 134.33 -185.02 134.66 -184 135 C-182.35 137.53 -181.94 139.41 -181.5 142.44 C-179.47 147.26 -176.76 148.11 -172.12 150.15 C-171.42 150.43 -170.72 150.71 -170 151 C-170 152.98 -170 154.96 -170 157 C-168.68 157.33 -167.36 157.66 -166 158 C-165.67 157.01 -165.34 156.02 -165 155 C-162.36 155.33 -159.72 155.66 -157 156 C-157 155.34 -157 154.68 -157 154 C-145.15 155.28 -145.15 155.28 -141.62 158.56 C-139.18 161.13 -139.18 161.13 -136.12 162.12 C-125.55 161.7 -115.62 148.89 -108.88 141.75 C-106.73 138.6 -105.75 135.63 -104.71 131.99 C-104 130 -104 130 -102 128 C-100 128.12 -100 128.12 -98 129 C-96.75 131.06 -96.75 131.06 -96 133 C-95.01 133 -94.02 133 -93 133 C-92.67 132.01 -92.34 131.02 -92 130 C-92.93 129.66 -92.93 129.66 -93.88 129.31 C-96.72 127.56 -97.03 126.18 -98 123 C-98.12 119.81 -98.12 119.81 -98 116.44 C-97.84 112.19 -97.99 109.72 -100 106 C-99.62 102.75 -99.62 102.75 -99 100 C-98.67 100 -98.34 100 -98 100 C-98 102.64 -98 105.28 -98 108 C-97.34 108 -96.68 108 -96 108 C-93.94 113.11 -92.74 117.52 -92 123 C-91.63 123.72 -91.26 124.44 -90.88 125.19 C-90 127 -90 127 -90.38 129.25 C-90.58 129.83 -90.79 130.4 -91 131 C-90.01 131.33 -89.02 131.66 -88 132 C-86.63 131.05 -85.3 130.05 -84 129 C-83.34 129 -82.68 129 -82 129 C-82.23 128.44 -82.45 127.89 -82.69 127.31 C-83.13 124.04 -81.94 122.58 -80 120 C-79.34 120 -78.68 120 -78 120 C-77.81 118.55 -77.81 118.55 -77.62 117.06 C-77.42 116.05 -77.21 115.04 -77 114 C-76.34 113.67 -75.68 113.34 -75 113 C-74.66 111.67 -74.33 110.33 -74 109 C-72.84 107.15 -72.84 107.15 -71.5 105.38 C-70.16 103.59 -69 102 -68 100 C-67.33 98.67 -66.67 97.33 -66 96 C-65.34 96 -64.68 96 -64 96 C-64.04 95.05 -64.08 94.1 -64.12 93.12 C-64 90 -64 90 -62 88 C-61.3 86.68 -60.63 85.35 -60 84 C-59.65 83.34 -59.3 82.68 -58.94 82 C-57.92 80.07 -57.92 80.07 -57.69 78.06 C-56.65 74.96 -54.28 73.28 -52 71 C-52 70.01 -52 69.02 -52 68 C-50.7 65.98 -49.36 63.98 -48 62 C-47.67 61.01 -47.34 60.02 -47 59 C-46.01 58.01 -46.01 58.01 -45 57 C-44.67 56.01 -44.34 55.02 -44 54 C-43 51 -43 51 -41 48 C-40.67 47.34 -40.34 46.68 -40 46 C-39.53 45.44 -39.05 44.89 -38.56 44.31 C-36.8 41.96 -36.8 41.96 -36.06 38.62 C-34.93 34.77 -33.31 32.25 -31 29 C-30.3 27.68 -29.63 26.35 -29 25 C-28.67 24.34 -28.34 23.68 -28 23 C-27.34 23 -26.68 23 -26 23 C-26 21.02 -26 19.04 -26 17 C-25.01 16.67 -24.02 16.34 -23 16 C-22.73 15.3 -22.46 14.6 -22.19 13.88 C-20.54 9.88 -18.31 6.8 -15 4 C-11.62 3.25 -11.62 3.25 -8 3 C-5.27 2.13 -2.66 1.07 0 0 Z M8 70 C9 72 9 72 9 72 Z M6 76 C7 78 7 78 7 78 Z M-74 110 C-73 112 -73 112 -73 112 Z M-8 114 C-7 116 -7 116 -7 116 Z M-95 121 C-94 123 -94 123 -94 123 Z M-81 123 C-80 125 -80 125 -80 125 Z M-85 132 C-85.99 132.33 -86.98 132.66 -88 133 C-88 133.66 -88 134.32 -88 135 C-86.68 134.67 -85.36 134.34 -84 134 C-84.33 133.34 -84.66 132.68 -85 132 Z M-22 150 C-21 153 -21 153 -21 153 Z M-32 177 C-31 179 -31 179 -31 179 Z M-34 181 C-34 182.65 -34 184.3 -34 186 C-33.67 186 -33.34 186 -33 186 C-33 184.35 -33 182.7 -33 181 C-33.33 181 -33.66 181 -34 181 Z M-41 202 C-40 205 -40 205 -40 205 Z M-81 275 C-81.33 275.66 -81.66 276.32 -82 277 C-81.34 277 -80.68 277 -80 277 C-80.33 276.34 -80.66 275.68 -81 275 Z " fill="#647AE7" transform="translate(866,337)"/>
<path d="M0 0 C0.66 0 1.32 0 2 0 C2 1.98 2 3.96 2 6 C2.99 6.5 2.99 6.5 4 7 C5.29 10.95 6.23 14.92 7 19 C7.46 21.15 7.91 22.84 8.97 24.77 C10.56 28.22 10.88 31.81 11.44 35.54 C11.81 38.16 11.81 38.16 14 40 C14.89 42.5 14.89 42.5 15.69 45.44 C15.96 46.41 16.23 47.37 16.51 48.37 C17 51 17 51 16 54 C16.66 54 17.32 54 18 54 C18.12 54.93 18.25 55.86 18.38 56.81 C18.82 60.14 18.82 60.14 21 63 C21.12 66.19 21.12 66.19 21 69 C21.66 69 22.32 69 23 69 C23.12 70.09 23.25 71.19 23.38 72.31 C23.75 76.07 23.75 76.07 26 79 C26 80.67 26 82.33 26 84 C26.66 84.66 27.32 85.32 28 86 C28.57 88.3 29.06 90.61 29.5 92.94 C30.49 98.27 30.49 98.27 33 103 C35.49 109.78 38 117.72 38 125 C38.66 125 39.32 125 40 125 C40.22 126.45 40.22 126.45 40.44 127.94 C40.68 130.86 40.68 130.86 42 132 C42.22 133.64 42.22 133.64 42.44 135.31 C42.92 138.5 43.44 140.28 45 143 C45.9 145.69 46.28 147.89 46.56 150.69 C46.69 151.9 46.69 151.9 46.82 153.14 C46.88 153.75 46.94 154.37 47 155 C47.66 155 48.32 155 49 155 C49.64 158.28 50 161.22 49.94 164.56 C49.78 167.89 49.78 167.89 51.01 170.31 C52.54 174.48 51.99 178.46 51.78 182.84 C52.03 186.41 52.87 188.16 55 191 C55.66 191.33 56.32 191.66 57 192 C56.67 193.32 56.34 194.64 56 196 C54.12 195.75 54.12 195.75 52 195 C50.75 192.94 50.75 192.94 50 191 C48.04 191.15 48.04 191.15 46 192 C44.89 194.01 44.89 194.01 44.19 196.5 C40.44 206.65 33.47 212.64 25 219 C24.11 219.71 23.23 220.42 22.32 221.15 C19.07 223.74 17.35 225.03 13.12 224.94 C9.83 223.95 8.4 222.57 5.92 220.28 C1.85 217.57 -3.26 216.94 -8 216 C-8 216.66 -8 217.32 -8 218 C-10.64 218 -13.28 218 -16 218 C-16.33 218.66 -16.66 219.32 -17 220 C-18.65 219.67 -20.3 219.34 -22 219 C-21.9 218.23 -21.8 217.46 -21.7 216.67 C-21.85 215.35 -21.85 215.35 -22 214 C-24.1 212.4 -24.1 212.4 -26.81 211.25 C-31.69 208.58 -31.69 208.58 -33.12 205.9 C-33.54 204.37 -33.93 202.84 -34.29 201.3 C-35.11 198.63 -36.31 197.03 -38.06 194.88 C-40.94 191.32 -42.07 188.45 -43 184 C-43.66 184 -44.32 184 -45 184 C-45.33 185.32 -45.66 186.64 -46 188 C-46.3 187.25 -46.61 186.5 -46.92 185.73 C-49.4 179.66 -52.03 173.76 -55.08 167.96 C-56 166 -56 166 -56 164 C-56.66 164 -57.32 164 -58 164 C-58.1 163.31 -58.2 162.62 -58.3 161.91 C-59.4 157.32 -61.7 153.34 -63.82 149.16 C-65.83 143.79 -63.77 140.09 -61.62 135 C-61.2 133.99 -60.78 132.98 -60.35 131.94 C-59 129 -59 129 -57.45 126.46 C-55.93 123.89 -55.1 121.54 -54.25 118.69 C-52.59 113.54 -50.65 108.58 -48.5 103.62 C-48.22 102.96 -47.93 102.29 -47.64 101.61 C-46.25 98.45 -44.83 95.74 -42.88 92.87 C-40.5 89.24 -39.81 85.88 -38.91 81.68 C-37.83 78.49 -36.12 76.6 -34 74 C-33.16 72.13 -32.39 70.23 -31.69 68.31 C-27.74 58.57 -22.75 52.29 -14.37 46.02 C-10.7 42.89 -8.41 39.13 -6 35 C-5.34 34.01 -4.68 33.02 -4 32 C-3.59 29.68 -3.27 27.34 -3 25 C-2.81 23.52 -2.63 22.04 -2.44 20.56 C-2.29 19.39 -2.15 18.21 -2 17 C-1.34 17 -0.68 17 0 17 C-0.17 16.44 -0.34 15.89 -0.51 15.31 C-2.07 9.45 -1.89 5.77 0 0 Z M47 157 C48 159 48 159 48 159 Z " fill="#845FEB" transform="translate(717,275)"/>
<path d="M0 0 C0.99 0.99 0.99 0.99 2 2 C5.08 2.17 5.08 2.17 8 2 C8 2.66 8 3.32 8 4 C9.08 4.4 9.08 4.4 10.19 4.81 C16.01 7.27 18.46 9.07 21 15 C21.41 15.74 21.83 16.49 22.25 17.25 C22.5 17.83 22.75 18.4 23 19 C22.67 19.66 22.34 20.32 22 21 C22.66 21 23.32 21 24 21 C24.03 22.92 24.05 24.83 24.06 26.75 C24.07 27.82 24.09 28.88 24.1 29.98 C23.96 34.3 23.41 36.39 21 40 C20.53 41.87 20.07 43.73 19.64 45.61 C18.64 49.35 17.26 52.95 15.9 56.58 C15.23 58.38 14.61 60.18 14 62 C13.43 63.54 12.84 65.07 12.26 66.61 C11.74 67.96 11.74 67.96 11.21 69.34 C10.86 70.28 10.5 71.22 10.12 72.19 C9.42 74.04 8.71 75.88 8.01 77.73 C7.67 78.62 7.33 79.51 6.97 80.43 C6.08 82.79 5.21 85.16 4.35 87.54 C3 91 3 91 1.31 93.19 C-0.41 95.57 -0.15 97.12 0 100 C-0.5 101.49 -0.5 101.49 -1 103 C-1.66 103 -2.32 103 -3 103 C-3.14 104.09 -3.29 105.19 -3.44 106.31 C-4.01 110.04 -5.09 113.28 -6.41 116.79 C-6.68 117.51 -6.95 118.22 -7.22 118.95 C-7.5 119.69 -7.78 120.43 -8.06 121.19 C-8.34 121.94 -8.63 122.69 -8.92 123.46 C-9.61 125.31 -10.31 127.15 -11 129 C-11.33 129 -11.66 129 -12 129 C-12.25 130.11 -12.5 131.23 -12.75 132.38 C-14 137.45 -15.97 142.19 -18 147 C-18.66 147 -19.32 147 -20 147 C-19.67 147.99 -19.34 148.98 -19 150 C-19.78 152.7 -19.78 152.7 -20.94 155.69 C-21.32 156.68 -21.7 157.68 -22.09 158.7 C-22.39 159.46 -22.69 160.22 -23 161 C-23.66 161 -24.32 161 -25 161 C-24.67 161.99 -24.34 162.98 -24 164 C-24.81 166.38 -24.81 166.38 -26 169 C-27.49 172.62 -28.79 176.27 -30 180 C-30.66 180 -31.32 180 -32 180 C-32.05 180.6 -32.1 181.21 -32.15 181.83 C-32.22 182.63 -32.3 183.43 -32.38 184.25 C-32.44 185.04 -32.51 185.83 -32.59 186.64 C-33.02 189.09 -33.79 190.85 -35 193 C-35.66 193 -36.32 193 -37 193 C-36.81 193.57 -36.61 194.14 -36.41 194.73 C-35.92 197.45 -36.39 198.73 -37.44 201.25 C-37.72 201.96 -38.01 202.66 -38.31 203.39 C-38.65 204.19 -38.65 204.19 -39 205 C-41.45 201.33 -41.1 199.5 -40.88 195.25 C-41.02 192.65 -41.55 191.17 -43 189 C-43.97 188.69 -44.94 188.38 -45.94 188.06 C-49.75 186.74 -50.27 185.55 -52 182 C-52.54 181.2 -53.07 180.39 -53.62 179.56 C-55.16 176.69 -55.49 174.19 -56 171 C-56.66 170.67 -57.32 170.34 -58 170 C-58.3 169.36 -58.6 168.72 -58.91 168.05 C-59.97 165.61 -59.97 165.61 -63.44 164.12 C-72.32 158.92 -79.08 147.81 -84 139 C-84 138.34 -84 137.68 -84 137 C-85.32 136.67 -86.64 136.34 -88 136 C-86.02 135.01 -86.02 135.01 -84 134 C-85.32 133.34 -86.64 132.68 -88 132 C-84.25 129 -84.25 129 -82 129 C-82.23 128.44 -82.45 127.89 -82.69 127.31 C-83.13 124.04 -81.94 122.58 -80 120 C-79.34 120 -78.68 120 -78 120 C-77.88 119.03 -77.75 118.06 -77.62 117.06 C-77.42 116.05 -77.21 115.04 -77 114 C-76.01 113.5 -76.01 113.5 -75 113 C-74.66 111.67 -74.33 110.33 -74 109 C-72.84 107.15 -72.84 107.15 -71.5 105.38 C-70.16 103.59 -69 102 -68 100 C-67.33 98.67 -66.67 97.33 -66 96 C-65.34 96 -64.68 96 -64 96 C-64.04 95.05 -64.08 94.1 -64.12 93.12 C-64 90 -64 90 -62 88 C-61.3 86.68 -60.63 85.35 -60 84 C-59.47 83.01 -59.47 83.01 -58.94 82 C-57.92 80.07 -57.92 80.07 -57.69 78.06 C-56.65 74.96 -54.28 73.28 -52 71 C-52 70.01 -52 69.02 -52 68 C-50.7 65.98 -49.36 63.98 -48 62 C-47.67 61.01 -47.34 60.02 -47 59 C-46.34 58.34 -45.68 57.68 -45 57 C-44.67 56.01 -44.34 55.02 -44 54 C-43 51 -43 51 -41 48 C-40.5 47.01 -40.5 47.01 -40 46 C-39.53 45.44 -39.05 44.89 -38.56 44.31 C-36.8 41.96 -36.8 41.96 -36.06 38.62 C-34.93 34.77 -33.31 32.25 -31 29 C-30.3 27.68 -29.63 26.35 -29 25 C-28.67 24.34 -28.34 23.68 -28 23 C-27.34 23 -26.68 23 -26 23 C-26 21.02 -26 19.04 -26 17 C-25.01 16.67 -24.02 16.34 -23 16 C-22.73 15.3 -22.46 14.6 -22.19 13.88 C-20.54 9.88 -18.31 6.8 -15 4 C-11.62 3.25 -11.62 3.25 -8 3 C-5.27 2.13 -2.66 1.07 0 0 Z M8 70 C9 72 9 72 9 72 Z M6 76 C7 78 7 78 7 78 Z M-74 110 C-73 112 -73 112 -73 112 Z M-8 114 C-7 116 -7 116 -7 116 Z M-81 123 C-80 125 -80 125 -80 125 Z M-22 150 C-21 153 -21 153 -21 153 Z M-32 177 C-31 179 -31 179 -31 179 Z M-34 181 C-34 182.65 -34 184.3 -34 186 C-33.67 186 -33.34 186 -33 186 C-33 184.35 -33 182.7 -33 181 C-33.33 181 -33.66 181 -34 181 Z " fill="#409ADD" transform="translate(866,337)"/>
<path d="M0 0 C8.69 0.33 18.95 2.16 25.44 8.31 C29.14 14.68 32.58 22.11 31.69 29.62 C31.01 31.96 30.14 33.86 29 36 C28.73 36.8 28.46 37.61 28.19 38.44 C26.18 42.77 22.92 45.39 19 48 C17 48.34 15 48.67 13 49 C12.04 49.53 12.04 49.53 11.06 50.06 C7.99 51.46 5.32 51.25 2 51 C1.34 50.34 0.68 49.68 0 49 C-1.99 48.6 -3.99 48.26 -6 48 C-6 47.34 -6 46.68 -6 46 C-6.99 46 -7.98 46 -9 46 C-9 45.34 -9 44.68 -9 44 C-9.64 43.73 -10.28 43.46 -10.94 43.19 C-13 42 -13 42 -14 39 C-14.66 38.67 -15.32 38.34 -16 38 C-16.62 34.94 -16.62 34.94 -17 32 C-17.66 32 -18.32 32 -19 32 C-19.08 29.6 -19.14 27.21 -19.19 24.81 C-19.23 23.8 -19.23 23.8 -19.26 22.77 C-19.33 18.26 -18.63 15.65 -16 12 C-15.71 11.34 -15.42 10.68 -15.12 10 C-13.46 7.05 -11.62 5.15 -9 3 C-5.31 2.31 -5.31 2.31 -2 2 C-1.34 1.34 -0.68 0.68 0 0 Z M-17 15 C-16 17 -16 17 -16 17 Z " fill="#479AD8" transform="translate(885,280)"/>
<path d="M0 0 C0.99 0.33 1.98 0.66 3 1 C1.68 3.97 0.36 6.94 -1 10 C-0.34 10.33 0.32 10.66 1 11 C0.34 11 -0.32 11 -1 11 C-1.05 11.77 -1.1 12.54 -1.15 13.34 C-1.22 14.34 -1.3 15.34 -1.38 16.38 C-1.44 17.37 -1.51 18.37 -1.59 19.4 C-2 22 -2 22 -4 24 C-4.96 25.02 -4.96 25.02 -5.94 26.06 C-8 28 -8 28 -11 29 C-12.22 30.63 -12.22 30.63 -13.19 32.56 C-14.08 34.26 -14.08 34.26 -15 36 C-15.99 35.34 -16.98 34.68 -18 34 C-17.34 33.01 -16.68 32.02 -16 31 C-15.67 30.01 -15.34 29.02 -15 28 C-12.35 22.35 -12.35 22.35 -10 20 C-9.65 18.67 -9.31 17.34 -9 16 C-8.36 14.65 -7.7 13.31 -7 12 C-6.34 12 -5.68 12 -5 12 C-3.89 10.12 -3.89 10.12 -3 8 C-3.33 7.34 -3.66 6.68 -4 6 C-2.68 4.02 -1.36 2.04 0 0 Z " fill="#A044D3" transform="translate(511,372)"/>
<path d="M0 0 C0.33 0 0.66 0 1 0 C1 2.64 1 5.28 1 8 C1.66 8 2.32 8 3 8 C5.06 13.11 6.26 17.52 7 23 C7.39 23.72 7.78 24.44 8.19 25.19 C8.46 25.79 8.72 26.38 9 27 C8.12 29.25 8.12 29.25 7 31 C2.22 27.57 2.22 27.57 1.34 25.27 C0.74 21.22 1.04 17.17 1.16 13.09 C1 10.02 0.43 8.63 -1 6 C-0.62 2.75 -0.62 2.75 0 0 Z M4 21 C5 23 5 23 5 23 Z " fill="#7079CE" transform="translate(767,437)"/>
<path d="M0 0 C1.21 0.03 1.21 0.03 2.44 0.06 C1.45 0.72 0.46 1.38 -0.56 2.06 C0.43 2.06 1.42 2.06 2.44 2.06 C2.44 2.72 2.44 3.38 2.44 4.06 C1.12 4.06 -0.2 4.06 -1.56 4.06 C-1.89 5.05 -2.22 6.04 -2.56 7.06 C-4.23 8.71 -4.23 8.71 -6.31 10.44 C-8.8 12.53 -11.16 14.62 -13.38 17 C-15.56 19.06 -15.56 19.06 -18.56 19.06 C-18.07 17.58 -18.07 17.58 -17.56 16.06 C-16.9 16.06 -16.24 16.06 -15.56 16.06 C-15.47 15.01 -15.47 15.01 -15.38 13.94 C-13.6 7.64 -8.93 4.35 -3.56 1.06 C-2.56 0.06 -2.56 0.06 0 0 Z " fill="#71499D" transform="translate(615.5625,199.9375)"/>
<path d="M0 0 C0.66 0.33 1.32 0.66 2 1 C1.01 4.96 0.02 8.92 -1 13 C-1.99 13 -2.98 13 -4 13 C-6.68 16.51 -7.5 19.66 -8 24 C-8.99 23.67 -9.98 23.34 -11 23 C-11.33 23.99 -11.66 24.98 -12 26 C-12.66 24.68 -13.32 23.36 -14 22 C-13.01 21.34 -12.02 20.68 -11 20 C-10.75 17.42 -10.75 17.42 -11 15 C-10.01 14.67 -9.02 14.34 -8 14 C-8 13.34 -8 12.68 -8 12 C-7.34 11.34 -6.68 10.68 -6 10 C-4.97 7.2 -4.97 7.2 -4.69 5 C-3.77 2.34 -2.31 1.49 0 0 Z M-10 16 C-9 18 -9 18 -9 18 Z " fill="#A531C2" transform="translate(437,513)"/>
<path d="M0 0 C1.19 3.58 0.43 4.65 -1.1 7.95 C-2.67 11.53 -3.81 15.27 -5 19 C-6.32 19 -7.64 19 -9 19 C-9 19.66 -9 20.32 -9 21 C-9.99 20.67 -10.98 20.34 -12 20 C-11 17.99 -9.99 15.98 -8.94 14 C-7.93 12.08 -7.93 12.08 -7.66 10.14 C-6.81 7.38 -5.38 5.87 -3.44 3.75 C-2.48 2.69 -2.48 2.69 -1.5 1.61 C-1 1.08 -0.51 0.55 0 0 Z " fill="#8F40BB" transform="translate(524,351)"/>
<path d="M0 0 C0.95 0.04 1.9 0.08 2.88 0.12 C2.31 5.67 0.25 10.16 -2.12 15.12 C-3.12 14.46 -4.11 13.81 -5.12 13.12 C-5.49 10.59 -5.49 10.59 -5.44 7.62 C-5.43 6.65 -5.43 5.67 -5.43 4.66 C-4.96 0.72 -3.89 0.16 0 0 Z " fill="#B258EA" transform="translate(638.125,444.875)"/>
<path d="M0 0 C2.76 2.76 2.47 5.2 3 9 C3.99 10.49 3.99 10.49 5 12 C5.41 14.48 5.41 14.48 5.62 17.19 C5.7 18.09 5.77 18.99 5.85 19.92 C5.93 20.95 5.93 20.95 6 22 C0.91 18.15 -0.17 14.01 -1.71 7.94 C-2.03 4.66 -1.46 2.92 0 0 Z " fill="#8A6AD4" transform="translate(710,250)"/>
<path d="M0 0 C0.66 0 1.32 0 2 0 C2.48 1.39 2.96 2.79 3.44 4.19 C3.84 5.35 3.84 5.35 4.25 6.54 C5 9 5 9 5.45 11.43 C6.1 14.48 7.21 17.13 8.44 20 C10 23.65 11.54 27.31 13 31 C7.45 26.56 5.22 20.64 3 14 C3 13.01 3 12.02 3 11 C2.34 11 1.68 11 1 11 C0.67 7.37 0.34 3.74 0 0 Z " fill="#843E9E" transform="translate(366,689)"/>
<path d="M0 0 C0.99 0.33 1.98 0.66 3 1 C0.12 7.75 0.12 7.75 -1 10 C-1.66 10 -2.32 10 -3 10 C-3.27 10.93 -3.54 11.86 -3.81 12.81 C-4.91 15.76 -5.62 17.06 -8 19 C-8.66 17.68 -9.32 16.36 -10 15 C-9.01 14.34 -8.02 13.68 -7 13 C-6.67 12.01 -6.34 11.02 -6 10 C-5.5 9.57 -5.01 9.13 -4.5 8.69 C-2.41 6.34 -2.46 4.05 -2 1 C-1.34 0.67 -0.68 0.34 0 0 Z " fill="#AB40CB" transform="translate(393,593)"/>
<path d="M0 0 C1.12 1.56 1.12 1.56 2 4 C1.25 7.38 1.25 7.38 0 11 C-0.31 12.09 -0.62 13.19 -0.94 14.31 C-2 17 -2 17 -5 19 C-6.96 13.13 -3.83 7.75 -1.31 2.44 C-0.88 1.63 -0.45 0.83 0 0 Z " fill="#5294CA" transform="translate(824,539)"/>
<path d="M0 0 C0.66 0.33 1.32 0.66 2 1 C1.91 2.61 1.8 4.21 1.69 5.81 C1.63 6.71 1.57 7.6 1.51 8.52 C0.93 11.33 0.28 12.31 -2 14 C-2.66 14 -3.32 14 -4 14 C-4.66 15.32 -5.32 16.64 -6 18 C-6.66 16.68 -7.32 15.36 -8 14 C-7.34 13.34 -6.68 12.68 -6 12 C-5.67 11.34 -5.34 10.68 -5 10 C-4.34 10.33 -3.68 10.66 -3 11 C-3 10.01 -3 9.02 -3 8 C-3.66 7.67 -4.32 7.34 -5 7 C-4.04 6.66 -4.04 6.66 -3.06 6.31 C-0.73 5.15 -0.73 5.15 -0.25 2.38 C-0.17 1.59 -0.09 0.81 0 0 Z " fill="#8448BD" transform="translate(563,274)"/>
<path d="M0 0 C0.33 0.99 0.66 1.98 1 3 C-0.29 4.7 -1.64 6.36 -3 8 C-5.07 11.29 -7.04 14.64 -9 18 C-11 15 -11 15 -11 13 C-10 12 -9 11 -8 10 C-6.8 7.93 -6.05 6.22 -5.56 3.88 C-4.69 0.98 -2.97 0 0 0 Z " fill="#AA3BC6" transform="translate(414,559)"/>
<path d="M0 0 C0.99 0 1.98 0 3 0 C3 2.64 3 5.28 3 8 C2.01 8.5 2.01 8.5 1 9 C1 10.32 1 11.64 1 13 C-0.33 14.33 -1.67 15.67 -3 17 C-4.29 12.61 -3.61 9.94 -2.06 5.69 C-1.68 4.62 -1.3 3.55 -0.91 2.45 C-0.61 1.64 -0.31 0.83 0 0 Z " fill="#A845E2" transform="translate(643,427)"/>
<path d="M0 0 C1.21 3.62 0.54 4.64 -1 8 C-1.66 8 -2.32 8 -3 8 C-3.08 8.74 -3.16 9.49 -3.25 10.25 C-4.15 13.57 -5.37 14.84 -8 17 C-8.99 17.33 -9.98 17.66 -11 18 C-10.72 17.44 -10.44 16.89 -10.16 16.32 C-9.36 14.72 -8.57 13.13 -7.78 11.53 C-7.15 10.25 -7.15 10.25 -6.5 8.94 C-6.08 8.08 -5.65 7.22 -5.22 6.34 C-4 4 -4 4 -2 1 C-1.67 1.33 -1.34 1.66 -1 2 C-0.67 1.34 -0.34 0.68 0 0 Z " fill="#8B50B3" transform="translate(582,242)"/>
<path d="M0 0 C1.5 1.38 1.5 1.38 3 3 C3 3.66 3 4.32 3 5 C3.66 5 4.32 5 5 5 C7.3 7.56 8 8.48 8 12 C8.66 12 9.32 12 10 12 C11.37 13.63 12.71 15.3 14 17 C14.66 17.66 15.32 18.32 16 19 C13 19 13 19 11.42 17.79 C1.98 8.05 1.98 8.05 -1 3 C-0.67 2.01 -0.34 1.02 0 0 Z " fill="#9947BF" transform="translate(380,721)"/>
<path d="M0 0 C0.66 0.33 1.32 0.66 2 1 C1.01 4.96 0.02 8.92 -1 13 C-1.99 13 -2.98 13 -4 13 C-4.66 12.01 -5.32 11.02 -6 10 C-5.67 9.01 -5.34 8.02 -5 7 C-4.9 6.34 -4.79 5.68 -4.69 5 C-3.77 2.34 -2.31 1.49 0 0 Z " fill="#A131B5" transform="translate(437,513)"/>
<path d="M0 0 C0.99 0.33 1.98 0.66 3 1 C2.21 4.41 1.13 7.69 0 11 C-0.33 10.34 -0.66 9.68 -1 9 C-1.99 8.67 -2.98 8.34 -4 8 C-2.25 2.25 -2.25 2.25 0 0 Z " fill="#C43EE5" transform="translate(575,609)"/>
<path d="M0 0 C3 1 3 1 4.1 2.64 C6.01 6.7 7.71 10.69 9 15 C8.34 15.66 7.68 16.32 7 17 C4.18 11.96 2.48 7.77 2 2 C1.34 2 0.68 2 0 2 C0 1.34 0 0.68 0 0 Z " fill="#8966CB" transform="translate(699,226)"/>
<path d="M0 0 C10.56 0.78 10.56 0.78 15 3 C15 3.66 15 4.32 15 5 C13.4 5.05 11.79 5.09 10.19 5.12 C9.29 5.15 8.4 5.17 7.48 5.2 C5 5 5 5 2 3 C2.66 2.67 3.32 2.34 4 2 C2.68 1.34 1.36 0.68 0 0 Z " fill="#6E45AF" transform="translate(658,197)"/>
<path d="M0 0 C2.3 3.45 2.24 4.71 2.2 8.76 C2.19 9.88 2.18 11 2.18 12.15 C2.16 13.32 2.14 14.48 2.12 15.69 C2.12 16.87 2.11 18.05 2.1 19.26 C2.07 22.17 2.04 25.09 2 28 C1.67 28 1.34 28 1 28 C0.91 26.19 0.91 26.19 0.82 24.34 C0.73 22.73 0.65 21.11 0.56 19.5 C0.52 18.71 0.48 17.92 0.44 17.1 C0.24 13.21 -0.05 9.39 -0.6 5.53 C-1 2 -1 2 0 0 Z " fill="#8F32BF" transform="translate(365,653)"/>
<path d="M0 0 C1.32 0 2.64 0 4 0 C4.33 1.98 4.66 3.96 5 6 C3.35 6.33 1.7 6.66 0 7 C0 7.66 0 8.32 0 9 C-0.99 8.67 -1.98 8.34 -3 8 C-2.54 7.13 -2.54 7.13 -2.06 6.25 C-1.07 4.16 -0.48 2.25 0 0 Z " fill="#9447C2" transform="translate(515,363)"/>
<path d="M0 0 C0.99 0 1.98 0 3 0 C4.12 3.3 3.9 5.05 2.56 8.25 C2.28 8.96 1.99 9.66 1.69 10.39 C1.46 10.92 1.24 11.45 1 12 C-1.24 8.65 -1.17 8.09 -0.62 4.31 C-0.51 3.5 -0.4 2.7 -0.29 1.86 C-0.19 1.25 -0.1 0.63 0 0 Z " fill="#6698D1" transform="translate(826,530)"/>
<path d="M0 0 C4.6 1.02 8.02 1.99 11.38 5.44 C11.91 6.28 12.45 7.13 13 8 C12.67 8.99 12.34 9.98 12 11 C10.29 9.38 8.63 7.71 7 6 C7 5.34 7 4.68 7 4 C4.36 3.34 1.72 2.68 -1 2 C-0.67 1.34 -0.34 0.68 0 0 Z " fill="#5E6376" transform="translate(899,283)"/>
<path d="M0 0 C0.33 0.99 0.66 1.98 1 3 C1.66 3 2.32 3 3 3 C2.11 6.7 1.05 10.35 0 14 C-0.33 14 -0.66 14 -1 14 C-1 12.35 -1 10.7 -1 9 C-1.66 9 -2.32 9 -3 9 C-2.01 6.03 -1.02 3.06 0 0 Z " fill="#C349E3" transform="translate(582,588)"/>
<path d="M0 0 C0.33 0.66 0.66 1.32 1 2 C1.66 2.33 2.32 2.66 3 3 C1.69 5.5 1.69 5.5 0 8 C-0.99 8 -1.98 8 -3 8 C-3.33 6.02 -3.66 4.04 -4 2 C-2.68 1.34 -1.36 0.68 0 0 Z " fill="#A33CCA" transform="translate(479,435)"/>
<path d="M0 0 C0.33 0 0.66 0 1 0 C1 5.94 1 11.88 1 18 C0.67 18 0.34 18 0 18 C-3.11 5.25 -3.11 5.25 0 0 Z " fill="#F035F8" transform="translate(365,663)"/>
<path d="M0 0 C0.99 0.66 1.98 1.32 3 2 C2.35 2.59 2.35 2.59 1.69 3.19 C-0.15 5.02 -0.15 5.02 -1.5 7.69 C-2 8.45 -2.49 9.21 -3 10 C-3.99 10 -4.98 10 -6 10 C-5.67 8.68 -5.34 7.36 -5 6 C-4.34 6 -3.68 6 -3 6 C-2.69 5.2 -2.38 4.39 -2.06 3.56 C-1 1 -1 1 0 0 Z " fill="#39536E" transform="translate(846,347)"/>
<path d="M0 0 C0.66 0 1.32 0 2 0 C0.74 4.51 -0.9 7.49 -4 11 C-4.33 10.34 -4.66 9.68 -5 9 C-5.66 8.67 -6.32 8.34 -7 8 C-6.22 7.42 -5.43 6.85 -4.62 6.25 C-2.2 4.17 -1.14 2.91 0 0 Z " fill="#913EAD" transform="translate(400,581)"/>
<path d="M0 0 C1.32 0.66 2.64 1.32 4 2 C4 2.66 4 3.32 4 4 C3.34 4 2.68 4 2 4 C2 4.99 2 5.98 2 7 C1.34 7 0.68 7 0 7 C-0.33 7.66 -0.66 8.32 -1 9 C-1.66 8.67 -2.32 8.34 -3 8 C-2.67 6.35 -2.34 4.7 -2 3 C-1.34 3 -0.68 3 0 3 C0 2.01 0 1.02 0 0 Z " fill="#8B42AF" transform="translate(421,539)"/>
<path d="M0 0 C0.66 0 1.32 0 2 0 C2.99 2.97 3.98 5.94 5 9 C3.02 9.99 3.02 9.99 1 11 C0.67 7.37 0.34 3.74 0 0 Z " fill="#BA4EDF" transform="translate(366,689)"/>
<path d="M0 0 C2.06 1.56 2.06 1.56 4 4 C3.75 7.75 3.75 7.75 3 11 C0.86 8.4 -0.56 6.37 -1 3 C-0.67 2.01 -0.34 1.02 0 0 Z " fill="#8E91E3" transform="translate(669,452)"/>
<path d="M0 0 C0.99 0.33 1.98 0.66 3 1 C2.38 2.32 1.76 3.63 1.12 4.94 C0.78 5.67 0.43 6.4 0.07 7.15 C-1 9 -1 9 -3 10 C-3.75 8.38 -3.75 8.38 -4 6 C-2.06 2.75 -2.06 2.75 0 0 Z " fill="#7C3C97" transform="translate(511,372)"/>
<path d="M0 0 C0.33 0.66 0.66 1.32 1 2 C0.34 2.66 -0.32 3.32 -1 4 C-0.67 2.68 -0.34 1.36 0 0 Z " fill="#631D7D" transform="translate(530,335)"/>
<path d="M0 0 C1.65 0 3.3 0 5 0 C5 0.33 5 0.66 5 1 C3.35 1 1.7 1 0 1 C0 0.67 0 0.34 0 0 Z " fill="#631D7D" transform="translate(644,193)"/>
<path d="M0 0 C4 1 4 1 4 1 Z " fill="#DAB1E6" transform="translate(484,758)"/>
<path d="M0 0 C0 3 0 3 0 3 Z " fill="#631D7D" transform="translate(389,598)"/>
<path d="M0 0 C0 3 0 3 0 3 Z " fill="#631D7D" transform="translate(436,511)"/>
<path d="M0 0 C0 3 0 3 0 3 Z " fill="#631D7D" transform="translate(490,410)"/>
<path d="M0 0 C0 3 0 3 0 3 Z " fill="#631D7D" transform="translate(523,349)"/>
<path d="M0 0 C0 3 0 3 0 3 Z " fill="#631D7D" transform="translate(542,313)"/>
<path d="" fill="#DAB1E6" transform="translate(0,0)"/>
<path d="M0 0 C0.33 0.66 0.66 1.32 1 2 C0.34 1.67 -0.32 1.34 -1 1 C-0.67 0.67 -0.34 0.34 0 0 Z " fill="#631D7D" transform="translate(380,614)"/>
<path d="M0 0 C0.33 0.66 0.66 1.32 1 2 C0.34 1.67 -0.32 1.34 -1 1 C-0.67 0.67 -0.34 0.34 0 0 Z " fill="#631D7D" transform="translate(397,583)"/>
<path d="" fill="#B8BCCC" transform="translate(0,0)"/>
<path d="M0 0 C0.99 0.5 0.99 0.5 2 1 C1.01 1.5 1.01 1.5 0 2 C0 1.34 0 0.68 0 0 Z " fill="#631D7D" transform="translate(451,482)"/>
<path d="M0 0 C0.33 0.66 0.66 1.32 1 2 C0.34 1.67 -0.32 1.34 -1 1 C-0.67 0.67 -0.34 0.34 0 0 Z " fill="#4C5470" transform="translate(811,409)"/>
<path d="" fill="#631D7D" transform="translate(0,0)"/>
<path d="M0 0 C0.33 0.66 0.66 1.32 1 2 C0.34 1.67 -0.32 1.34 -1 1 C-0.67 0.67 -0.34 0.34 0 0 Z " fill="#631D7D" transform="translate(526,343)"/>
<path d="M0 0 C0.33 0.66 0.66 1.32 1 2 C0.34 1.67 -0.32 1.34 -1 1 C-0.67 0.67 -0.34 0.34 0 0 Z " fill="#631D7D" transform="translate(566,268)"/>
<path d="M0 0 C3 1 3 1 3 1 Z " fill="#631D7D" transform="translate(640,193)"/>
<path d="" fill="#631D7D" transform="translate(0,0)"/>
<path d="" fill="#AD15BD" transform="translate(0,0)"/>
<path d="" fill="#F37FFC" transform="translate(0,0)"/>
<path d="" fill="#631D7D" transform="translate(0,0)"/>
<path d="" fill="#631D7D" transform="translate(0,0)"/>
<path d="" fill="#631D7D" transform="translate(0,0)"/>
<path d="" fill="#631D7D" transform="translate(0,0)"/>
<path d="" fill="#631D7D" transform="translate(0,0)"/>
<path d="" fill="#EFF1FB" transform="translate(0,0)"/>
<path d="" fill="#631D7D" transform="translate(0,0)"/>
<path d="" fill="#892DB7" transform="translate(0,0)"/>
<path d="" fill="#9C20BA" transform="translate(0,0)"/>
<path d="" fill="#3E9CE1" transform="translate(0,0)"/>
<path d="" fill="#EFF1FB" transform="translate(0,0)"/>
<path d="" fill="#4C5470" transform="translate(0,0)"/>
<path d="" fill="#4C5470" transform="translate(0,0)"/>
<path d="" fill="#4578A8" transform="translate(0,0)"/>
<path d="" fill="#4C5470" transform="translate(0,0)"/>
<path d="" fill="#631D7D" transform="translate(0,0)"/>
<path d="" fill="#3E9CE1" transform="translate(0,0)"/>
<path d="" fill="#4C5470" transform="translate(0,0)"/>
<path d="M0 0 C2 1 2 1 2 1 Z " fill="#631D7D" transform="translate(504,382)"/>
<path d="" fill="#4C5470" transform="translate(0,0)"/>
<path d="" fill="#3E9CE1" transform="translate(0,0)"/>
<path d="" fill="#3E9CE1" transform="translate(0,0)"/>
<path d="" fill="#631D7D" transform="translate(0,0)"/>
<path d="" fill="#4C5470" transform="translate(0,0)"/>
<path d="" fill="#631D7D" transform="translate(0,0)"/>
<path d="" fill="#000002" transform="translate(0,0)"/>
<path d="" fill="#310E3F" transform="translate(0,0)"/>
<path d="" fill="#631D7D" transform="translate(0,0)"/>
<path d="" fill="#892DB7" transform="translate(0,0)"/>
<path d="" fill="#631D7D" transform="translate(0,0)"/>
<path d="" fill="#631D7D" transform="translate(0,0)"/>
<path d="" fill="#631D7D" transform="translate(0,0)"/>
<path d="M0 0 C2 1 2 1 2 1 Z " fill="#000002" transform="translate(665,196)"/>
<path d="" fill="#DAB1E6" transform="translate(0,0)"/>
<path d="" fill="#631D7D" transform="translate(0,0)"/>
<path d="" fill="#EFF1FB" transform="translate(0,0)"/>
<path d="" fill="#DAB1E6" transform="translate(0,0)"/>
<path d="" fill="#631D7D" transform="translate(0,0)"/>
<path d="" fill="#DAB1E6" transform="translate(0,0)"/>
<path d="" fill="#DAB1E6" transform="translate(0,0)"/>
<path d="" fill="#631D7D" transform="translate(0,0)"/>
<path d="" fill="#DAB1E6" transform="translate(0,0)"/>
<path d="" fill="#631D7D" transform="translate(0,0)"/>
<path d="" fill="#AF3DF2" transform="translate(0,0)"/>
<path d="" fill="#631D7D" transform="translate(0,0)"/>
<path d="" fill="#631D7D" transform="translate(0,0)"/>
<path d="" fill="#631D7D" transform="translate(0,0)"/>
<path d="" fill="#EFF1FB" transform="translate(0,0)"/>
<path d="" fill="#637AE9" transform="translate(0,0)"/>
<path d="" fill="#631D7D" transform="translate(0,0)"/>
<path d="" fill="#631D7D" transform="translate(0,0)"/>
<path d="" fill="#631D7D" transform="translate(0,0)"/>
<path d="" fill="#DAB1E6" transform="translate(0,0)"/>
<path d="" fill="#EFF1FB" transform="translate(0,0)"/>
<path d="" fill="#000002" transform="translate(0,0)"/>
<path d="" fill="#000002" transform="translate(0,0)"/>
<path d="" fill="#EFF1FB" transform="translate(0,0)"/>
<path d="" fill="#631D7D" transform="translate(0,0)"/>
<path d="" fill="#631D7D" transform="translate(0,0)"/>
<path d="" fill="#EFF1FB" transform="translate(0,0)"/>
<path d="" fill="#EFF1FB" transform="translate(0,0)"/>
<path d="" fill="#631D7D" transform="translate(0,0)"/>
<path d="" fill="#DAB1E6" transform="translate(0,0)"/>
<path d="" fill="#EFF1FB" transform="translate(0,0)"/>
<path d="" fill="#631D7D" transform="translate(0,0)"/>
<path d="" fill="#EFF1FB" transform="translate(0,0)"/>
<path d="" fill="#4C5470" transform="translate(0,0)"/>
<path d="" fill="#EFF1FB" transform="translate(0,0)"/>
<path d="" fill="#631D7D" transform="translate(0,0)"/>
<path d="" fill="#DAB1E6" transform="translate(0,0)"/>
<path d="" fill="#4C5470" transform="translate(0,0)"/>
<path d="" fill="#EFF1FB" transform="translate(0,0)"/>
<path d="" fill="#4C5470" transform="translate(0,0)"/>
<path d="" fill="#4C5470" transform="translate(0,0)"/>
<path d="" fill="#631D7D" transform="translate(0,0)"/>
<path d="" fill="#631D7D" transform="translate(0,0)"/>
<path d="" fill="#4C5470" transform="translate(0,0)"/>
<path d="" fill="#631D7D" transform="translate(0,0)"/>
<path d="" fill="#631D7D" transform="translate(0,0)"/>
<path d="" fill="#631D7D" transform="translate(0,0)"/>
<path d="" fill="#4C5470" transform="translate(0,0)"/>
<path d="" fill="#631D7D" transform="translate(0,0)"/>
<path d="" fill="#631D7D" transform="translate(0,0)"/>
<path d="" fill="#3E9CE1" transform="translate(0,0)"/>
<path d="" fill="#EFF1FB" transform="translate(0,0)"/>
<path d="" fill="#3E9CE1" transform="translate(0,0)"/>
<path d="" fill="#000002" transform="translate(0,0)"/>
<path d="" fill="#000002" transform="translate(0,0)"/>
<path d="" fill="#631D7D" transform="translate(0,0)"/>
<path d="" fill="#631D7D" transform="translate(0,0)"/>
<path d="" fill="#631D7D" transform="translate(0,0)"/>
<path d="" fill="#631D7D" transform="translate(0,0)"/>
<path d="" fill="#631D7D" transform="translate(0,0)"/>
<path d="" fill="#EFF1FB" transform="translate(0,0)"/>
<path d="" fill="#EFF1FB" transform="translate(0,0)"/>
<path d="" fill="#631D7D" transform="translate(0,0)"/>
<path d="" fill="#631D7D" transform="translate(0,0)"/>
<path d="" fill="#631D7D" transform="translate(0,0)"/>
</svg>
